<svg xmlns="http://www.w3.org/2000/svg" width="56" height="56" viewBox="0 0 56 56">
  <g id="icon-drive" transform="translate(0)">
    <rect id="Rectangle_67" data-name="Rectangle 67" width="56" height="56" transform="translate(0 0)" fill="none"/>
    <line id="Line_2" data-name="Line 2" x2="50" transform="translate(3 26)" fill="none" stroke="#c8b273" stroke-linecap="round" stroke-linejoin="round" stroke-width="2"/>
    <path id="Path_67" data-name="Path 67" d="M73.559,184v5.195a1.732,1.732,0,0,1-1.732,1.732H66.632a1.732,1.732,0,0,1-1.732-1.732V184m-24.243,0v5.195a1.732,1.732,0,0,1-1.732,1.732H33.732A1.732,1.732,0,0,1,32,189.195V184" transform="translate(-24.638 -143.737)" fill="none" stroke="#c8b273" stroke-linecap="round" stroke-linejoin="round" stroke-width="2"/>
    <line id="Line_3" data-name="Line 3" x2="3" transform="translate(15 32)" fill="none" stroke="#c8b273" stroke-linecap="round" stroke-linejoin="round" stroke-width="2"/>
    <line id="Line_4" data-name="Line 4" x2="3" transform="translate(38 32)" fill="none" stroke="#c8b273" stroke-linecap="round" stroke-linejoin="round" stroke-width="2"/>
    <path id="Path_68" data-name="Path 68" d="M73.559,63.585,67.09,49.028A1.732,1.732,0,0,0,65.507,48H40.052a1.732,1.732,0,0,0-1.582,1.028L32,63.585V77.438H73.559Z" transform="translate(-24.638 -37.174)" fill="none" stroke="#c8b273" stroke-linecap="round" stroke-linejoin="round" stroke-width="2"/>
  </g>
</svg>
