<svg xmlns="http://www.w3.org/2000/svg" width="13.974" height="11.978" viewBox="0 0 13.974 11.978">
  <path id="Path_51147" data-name="Path 51147" d="M752.224,682.567h-.832l-.331-1h1.164a.5.5,0,0,0,0-1h-1.5l-.682-2.047a1.484,1.484,0,0,0-1.314-.948h-5.989a1.483,1.483,0,0,0-1.314.948l-.682,2.047h-1.5a.5.5,0,0,0,0,1h1.164l-.331,1h-.833a.5.5,0,0,0-.5.5v2.995a.5.5,0,0,0,.5.5h.5v2a1,1,0,0,0,1,1h1a1,1,0,0,0,1-1v-2h5.989v2a1,1,0,0,0,1,1h1a1,1,0,0,0,1-1v-2h.5a.5.5,0,0,0,.5-.5v-2.995A.5.5,0,0,0,752.224,682.567Zm-9.849-3.727a.511.511,0,0,1,.366-.265h2v.5a.5.5,0,0,0,.5.5h1a.5.5,0,0,0,.5-.5v-.5h2a.513.513,0,0,1,.367.265l1.243,3.727h-9.209Zm-.632,6.722a1,1,0,1,1,1-1A1,1,0,0,1,741.743,685.561Zm5.989,0H743.74v-1h3.993Zm2,0a1,1,0,1,1,1-1A1,1,0,0,1,749.729,685.561Z" transform="translate(-738.749 -677.576)" fill="#BB855D"/>
</svg>