<svg xmlns="http://www.w3.org/2000/svg" width="67.946" height="39.148" viewBox="0 0 67.946 39.148">
  <g id="icon-bike" transform="translate(0.375 0.375)">
    <path id="icon-bike-2" data-name="icon-bike" d="M54.6,13.2a12.511,12.511,0,0,0-6.331,1.723L40.105,2.4H51.623a3.8,3.8,0,0,1-.839,2.383A4.289,4.289,0,0,1,47.4,6a.6.6,0,1,0,0,1.2,5.411,5.411,0,0,0,4.291-1.627,5.252,5.252,0,0,0,1.1-3.854A.6.6,0,0,0,52.2,1.2H39a.6.6,0,1,0-.5.929l3.4,5.212H22.856L19.157,1.2H25.8a.6.6,0,1,0,0-1.2H15a.6.6,0,1,0,0,1.2h2.777a.7.7,0,0,0,.03.084L21.9,8.078l-3.665,6.468A12.615,12.615,0,1,0,25.1,26.4H38.4a3.364,3.364,0,0,1-.773,2.387A4.37,4.37,0,0,1,34.2,30a.6.6,0,1,0,0,1.2,5.489,5.489,0,0,0,4.337-1.629,5.1,5.1,0,0,0,1.1-3.731.6.6,0,0,0-.6-.522H34.328L42.783,8.709l4.476,6.868A12.577,12.577,0,1,0,54.6,13.2ZM41.523,8.4,33.306,24.68,23.58,8.4ZM22.61,9.257l9.677,16.059H25.174a12.584,12.584,0,0,0-5.894-10.18l3.33-5.878Zm1.364,16.059H13.512l5.176-9.137a11.391,11.391,0,0,1,5.286,9.137ZM12.6,37.2a11.4,11.4,0,1,1,5.044-21.607L11.961,25.62a.6.6,0,0,0,0,.6.374.374,0,0,0,.518.18h11.48A11.421,11.421,0,0,1,12.6,37.2Zm42,0a11.386,11.386,0,0,1-6.681-20.615l6.3,9.661a.6.6,0,0,0,1.006-.655l-6.3-9.661A11.394,11.394,0,1,1,54.6,37.2Z" transform="translate(0)" fill="#c8b273" stroke="#c8b273" stroke-width="0.75"/>
  </g>
</svg>
