<svg id="icon-spring" xmlns="http://www.w3.org/2000/svg" xmlns:xlink="http://www.w3.org/1999/xlink" width="90" height="91" viewBox="0 0 90 91">
  <defs>
    <clipPath id="clip-path">
      <rect id="Rectangle_269" data-name="Rectangle 269" width="51.468" height="51.468" fill="none"/>
    </clipPath>
  </defs>
  <g id="Rectangle_268" data-name="Rectangle 268" fill="#fcfeff" stroke="#c8b273" stroke-width="3">
    <path d="M11,0H77A13,13,0,0,1,90,13V80A11,11,0,0,1,79,91H11A11,11,0,0,1,0,80V11A11,11,0,0,1,11,0Z" stroke="none"/>
    <path d="M11,1.5H77A11.5,11.5,0,0,1,88.5,13V80A9.5,9.5,0,0,1,79,89.5H11A9.5,9.5,0,0,1,1.5,80V11A9.5,9.5,0,0,1,11,1.5Z" fill="none"/>
  </g>
  <g id="Group_139" data-name="Group 139" transform="translate(19.266 19.766)">
    <g id="Group_138" data-name="Group 138" clip-path="url(#clip-path)">
      <path id="Path_105" data-name="Path 105" d="M53.17,60.094A7.134,7.134,0,1,1,60.3,52.96,7.142,7.142,0,0,1,53.17,60.094Zm0-13.268A6.134,6.134,0,1,0,59.3,52.96,6.141,6.141,0,0,0,53.17,46.826Z" transform="translate(-27.437 -27.314)" fill="#c8b273"/>
      <path id="Path_106" data-name="Path 106" d="M53.17,60.094A7.134,7.134,0,1,1,60.3,52.96,7.142,7.142,0,0,1,53.17,60.094Zm0-13.268A6.134,6.134,0,1,0,59.3,52.96,6.141,6.141,0,0,0,53.17,46.826Z" transform="translate(-27.437 -27.314)" fill="#c8b273"/>
      <path id="Path_107" data-name="Path 107" d="M53.17,45.827c.1,0,.2.006.29.012l.094.006.76.042-.019.038c.152.024.307.055.47.092l.084.02.024.006c.162.039.323.085.476.134l.139.048.032.011a7.009,7.009,0,0,1,.827.351l.032.016c.07.034.142.07.215.111.111.061.22.127.312.184.073.045.148.091.224.142.1.065.2.137.311.221.061.046.122.093.181.14.12.1.225.185.32.272a7.2,7.2,0,0,1,.612.624c.114.132.214.255.306.378l.064.087c.11.151.207.293.295.433l.02.034.005.009a7.1,7.1,0,0,1,.664,1.423c.027.079.063.186.1.3s.066.24.1.377l.006.025c.013.052.025.1.036.157.039.187.068.362.09.534,0,.016,0,.029.006.042q.009.07.016.139h.015l.019.481c0,.025,0,.051,0,.076,0,.051.007.109.007.171,0,.131-.008.252-.017.37l-.006.087c-.013.2-.035.4-.065.6,0,.015,0,.03-.007.045-.028.181-.064.363-.11.556l-.011.043-.007.029,0,.007c-.047.184-.1.353-.15.516-.007.023-.016.047-.025.072l-.009.024a6.99,6.99,0,0,1-.351.823l-.013.025c-.042.085-.086.173-.136.262s-.1.172-.15.252l-.016.026c-.045.073-.1.164-.161.252s-.126.18-.206.287c-.05.067-.1.135-.155.2-.089.109-.173.208-.258.3a7.2,7.2,0,0,1-.594.585c-.137.119-.263.223-.387.317l-.042.031-.019.014A7.09,7.09,0,0,1,55.5,59.693c-.079.028-.163.057-.251.084-.13.039-.265.076-.416.112L54.8,59.9l-.112.027c-.2.042-.374.073-.548.1l-.029,0-.138.017v.016l-.477.022-.1.006c-.068,0-.145.009-.226.009s-.17-.005-.249-.01l-.1-.006-.475-.024v-.015l-.138-.017-.033,0c-.18-.025-.361-.058-.553-.1l-.082-.02-.036-.009c-.153-.036-.308-.078-.457-.124-.051-.016-.1-.033-.145-.049l-.055-.019a7.1,7.1,0,0,1-.925-.39l-.011-.005-.043-.022c-.132-.069-.267-.146-.437-.251l-.035-.022-.068-.042c-.122-.078-.249-.166-.387-.268l-.021-.016-.1-.075c-.115-.089-.233-.186-.349-.287a7.125,7.125,0,0,1-.6-.6c-.1-.109-.186-.213-.27-.318-.042-.051-.081-.1-.118-.154l-.01-.014c-.07-.094-.154-.207-.235-.33-.028-.043-.055-.086-.081-.128l-.034-.055-.012-.019c-.065-.106-.133-.216-.2-.333-.023-.041-.043-.084-.064-.126l-.027-.055a7.142,7.142,0,0,1-.366-.852L46.44,55.3c-.016-.044-.031-.087-.046-.131-.049-.154-.094-.309-.133-.464-.01-.039-.02-.078-.029-.117s-.024-.1-.034-.155l-.072.072-.074-1.193c-.007-.11-.015-.225-.015-.347,0-.068,0-.132.008-.187,0-.028,0-.056,0-.084l.044-1.124.075.074q.015-.077.031-.155c.009-.042.019-.082.029-.122l.01-.04c.034-.146.069-.28.107-.406.028-.094.059-.181.088-.266l0-.008a7.074,7.074,0,0,1,.374-.9l0-.009.018-.036c.073-.142.158-.293.261-.46l.021-.034.032-.052c.085-.134.177-.269.283-.413.024-.033.049-.067.075-.1.1-.126.2-.253.306-.374a7.157,7.157,0,0,1,.6-.609c.11-.1.228-.2.351-.3l.113-.086.021-.016c.132-.1.252-.184.369-.26l.1-.064.044-.027c.106-.066.246-.152.394-.23l.089-.045.043-.021a7.178,7.178,0,0,1,.879-.375c.074-.026.148-.052.223-.076.138-.043.283-.084.433-.12l.048-.011.089-.021.167-.035-.07-.072,1.1-.058.1-.006C52.991,45.833,53.077,45.827,53.17,45.827ZM59.3,53.033l-.01-.284c-.006-.175-.02-.356-.042-.536l0-.029c-.019-.149-.044-.3-.078-.463-.009-.042-.019-.084-.029-.127l-.007-.028c-.029-.122-.056-.228-.084-.326s-.057-.178-.083-.254a6.1,6.1,0,0,0-.572-1.226l-.021-.035c-.074-.118-.157-.24-.254-.373l-.053-.072c-.081-.107-.167-.214-.265-.327a6.193,6.193,0,0,0-.526-.536c-.082-.074-.172-.151-.277-.235-.049-.04-.1-.08-.155-.12-.1-.073-.185-.136-.268-.191-.061-.041-.125-.08-.193-.122-.086-.053-.177-.109-.267-.158-.056-.031-.116-.06-.179-.092l-.035-.017a6.024,6.024,0,0,0-.712-.3l-.037-.013-.111-.038c-.128-.041-.266-.08-.408-.114l-.031-.008-.058-.014c-.173-.04-.331-.069-.486-.092l-.022,0c-.184-.026-.364-.043-.538-.052l-.329-.017-.308.016c-.176.009-.357.026-.535.051h-.006l-.024,0c-.15.022-.3.05-.467.087L51.758,47l-.048.012c-.126.031-.251.066-.368.1-.061.019-.123.041-.192.065a6.169,6.169,0,0,0-.754.321l-.06.03-.054.027c-.123.066-.24.137-.338.2l-.05.031-.078.049c-.1.065-.2.138-.316.223l-.021.016-.1.074c-.1.083-.207.169-.3.254a6.158,6.158,0,0,0-.519.524c-.091.1-.18.213-.264.323l-.063.085c-.092.125-.172.241-.244.356l-.022.036-.025.041c-.087.142-.16.271-.222.391l-.018.037a6.1,6.1,0,0,0-.323.774l0,.009c-.027.079-.053.153-.075.226-.031.1-.061.219-.092.349L47.2,51.6c-.007.03-.015.06-.021.09-.034.161-.061.321-.081.475l0,.014v.009c-.023.181-.038.362-.044.538l-.011.294v.017l.018.293c.01.171.029.346.055.522v.009c0,.008,0,.016,0,.023q.035.229.091.469c.007.031.015.064.024.1v0c.034.134.072.269.114.4.011.033.024.068.036.1L47.4,55a6.142,6.142,0,0,0,.315.732l.033.067c.014.03.029.059.045.088.051.094.109.187.17.286l.01.015.037.059c.02.033.041.066.062.1.068.1.141.2.2.285l.01.014c.032.043.064.086.1.127.073.091.149.181.234.276a6.121,6.121,0,0,0,.52.515c.1.088.2.171.3.248l.084.063.02.015c.119.087.228.163.333.23l.045.027.045.027c.147.091.263.157.374.215l.01.005.04.02a6.088,6.088,0,0,0,.79.332l.062.022.112.038c.124.038.257.074.392.106l.046.012.058.014c.164.036.322.065.478.086l.02,0c.174.024.353.04.532.049l.286.014.285-.013c.173-.008.35-.023.528-.046l.023,0c.152-.021.306-.048.473-.084l.09-.021.036-.009c.132-.032.249-.063.358-.1.069-.021.139-.046.214-.072a6.1,6.1,0,0,0,1.646-.864l.025-.018.027-.02c.1-.079.213-.168.332-.271a6.2,6.2,0,0,0,.511-.5c.074-.082.147-.167.223-.26.043-.054.088-.112.132-.171.072-.1.128-.174.179-.249s.086-.133.137-.215l.016-.025c.046-.074.089-.144.127-.213s.075-.143.114-.222l.013-.026a6.019,6.019,0,0,0,.3-.71l.012-.034c.005-.014.01-.028.015-.043.047-.14.089-.285.129-.444l.011-.043.007-.026c.039-.166.07-.324.094-.48l.005-.034c.027-.177.046-.353.057-.523l.006-.092C59.3,53.182,59.3,53.107,59.3,53.033Z" transform="translate(-27.438 -27.314)" fill="#c8b273"/>
      <path id="Path_108" data-name="Path 108" d="M53.324,49.627l-.6-.8c.132-.1.252-.184.367-.259l.549.836c-.1.064-.2.136-.308.218Z" transform="translate(-31.263 -28.882)" fill="#c8b273"/>
      <path id="Path_109" data-name="Path 109" d="M52.253,50.454l-.669-.743c.114-.1.232-.2.353-.3l.619.785C52.453,50.28,52.351,50.366,52.253,50.454Z" transform="translate(-30.611 -29.365)" fill="#c8b273"/>
      <path id="Path_110" data-name="Path 110" d="M58.03,47.4l-.3-.954.146-.044h0c.094-.027.191-.053.289-.076l.238.971c-.1.024-.177.045-.25.066h0l-.12.036Z" transform="translate(-34.126 -27.602)" fill="#c8b273"/>
      <path id="Path_111" data-name="Path 111" d="M54.456,48.895l-.528-.849c.113-.07.247-.152.389-.228l0,0,.471.882c-.114.061-.225.128-.32.187Z" transform="translate(-31.951 -28.452)" fill="#c8b273"/>
      <path id="Path_112" data-name="Path 112" d="M59.282,47.092l-.22-.975c.092-.021.189-.041.287-.059h0c.088-.016.175-.03.259-.042h0l.142.99c-.078.011-.154.024-.226.037S59.366,47.073,59.282,47.092Z" transform="translate(-34.888 -27.422)" fill="#c8b273"/>
      <path id="Path_113" data-name="Path 113" d="M61.561,45.839v1l-.476.023c-.173.008-.347.025-.535.05l-.137-.991c.205-.029.414-.049.622-.059Z" transform="translate(-35.66 -27.337)" fill="#c8b273"/>
      <path id="Path_114" data-name="Path 114" d="M44.941,28.273l-.206-.4-.112.076L37.628,17.615l-.019-.043a4.676,4.676,0,0,0-.708-1.149l-.211-.252.148-.293A4.838,4.838,0,0,1,39.3,13.583a4.783,4.783,0,0,1,1.847-.37,4.855,4.855,0,0,1,1.587.267l.3.1.031.32a4.661,4.661,0,0,0,.324,1.317l.018.045L45.8,27.456l-.266.052.006.016.241.356-.1.044.009.026-.008,0A6.028,6.028,0,0,0,44.941,28.273ZM38.509,17.131l5.986,8.842L42.447,15.554a5.663,5.663,0,0,1-.333-1.217,3.842,3.842,0,0,0-.969-.124,3.788,3.788,0,0,0-1.462.293,3.835,3.835,0,0,0-1.8,1.547A5.668,5.668,0,0,1,38.509,17.131Z" transform="translate(-21.983 -8.085)" fill="#c8b273"/>
      <path id="Path_115" data-name="Path 115" d="M27.5,45.8l-12.3-2.37-.044-.017a4.675,4.675,0,0,0-1.314-.312l-.327-.029-.1-.312a4.823,4.823,0,0,1,2.473-5.863l.289-.141.248.2a4.672,4.672,0,0,0,1.161.7l.045.019,10.347,6.949-.049.072.4.2h0v0a6.022,6.022,0,0,0-.318.762v0l0,.005-.027-.009-.056.131-.368-.247ZM15.48,42.462l10.484,2.019-8.814-5.92a5.67,5.67,0,0,1-1.1-.625,3.82,3.82,0,0,0-1.779,4.206A5.671,5.671,0,0,1,15.48,42.462Z" transform="translate(-8.056 -22.017)" fill="#c8b273"/>
      <path id="Path_116" data-name="Path 116" d="M49.471,53.587l-.844-.536c.085-.135.179-.271.277-.4l.006-.009h0l.8.593c-.086.117-.167.234-.24.349Z" transform="translate(-28.919 -31.21)" fill="#c8b273"/>
      <path id="Path_117" data-name="Path 117" d="M47.479,58.354l-.973-.231c.023-.1.045-.186.069-.272v0q.019-.068.039-.136l.958.287q-.017.056-.032.112v0C47.518,58.195,47.5,58.277,47.479,58.354Z" transform="translate(-27.707 -34.112)" fill="#c8b273"/>
      <path id="Path_118" data-name="Path 118" d="M48.784,54.719l-.889-.458c.073-.142.159-.293.261-.46l.853.522C48.922,54.465,48.848,54.595,48.784,54.719Z" transform="translate(-28.501 -31.875)" fill="#c8b273"/>
      <path id="Path_119" data-name="Path 119" d="M50.255,52.512l-.795-.607c.1-.132.2-.258.307-.376l.752.659C50.431,52.289,50.342,52.4,50.255,52.512Z" transform="translate(-29.396 -30.576)" fill="#c8b273"/>
      <path id="Path_120" data-name="Path 120" d="M47.188,59.725l-.991-.131c.012-.092.026-.187.042-.28h0c.016-.1.034-.189.053-.277l.978.21c-.017.079-.032.157-.045.234v0c-.013.076-.025.154-.036.24Z" transform="translate(-27.529 -34.87)" fill="#c8b273"/>
      <path id="Path_121" data-name="Path 121" d="M46.118,60.394l.992.127v0h0c-.022.177-.037.357-.044.536l-.029.775-.983-.491.012-.323C46.074,60.8,46.092,60.594,46.118,60.394Z" transform="translate(-27.454 -35.646)" fill="#c8b273"/>
      <path id="Path_122" data-name="Path 122" d="M48.287,70.8c-.072-.115-.141-.228-.208-.35l.878-.478c.053.1.115.2.178.3Z" transform="translate(-28.607 -41.394)" fill="#c8b273"/>
      <path id="Path_123" data-name="Path 123" d="M46.694,67.017c-.024-.072-.047-.148-.069-.227v0c-.022-.077-.043-.155-.063-.234v0l.97-.244c.019.074.037.141.055.205v0c.018.063.037.126.057.187v0Z" transform="translate(-27.738 -39.167)" fill="#c8b273"/>
      <path id="Path_124" data-name="Path 124" d="M49.072,72.026c-.076-.1-.157-.211-.236-.33l.832-.555c.069.1.142.2.2.286Z" transform="translate(-29.039 -42.108)" fill="#c8b273"/>
      <path id="Path_125" data-name="Path 125" d="M49.957,73.178l-.007-.008c-.1-.109-.184-.211-.263-.31h0l.782-.623c.071.089.147.179.233.274Z" transform="translate(-29.525 -42.774)" fill="#c8b273"/>
      <path id="Path_126" data-name="Path 126" d="M46.354,65.557h0c-.021-.088-.04-.179-.058-.269h0c-.018-.091-.034-.182-.047-.271l.988-.152h0v0c.012.077.025.154.04.229V65.1c.014.074.031.15.049.227Z" transform="translate(-27.559 -38.288)" fill="#c8b273"/>
      <path id="Path_127" data-name="Path 127" d="M27.976,67.615l.042.093.025-.009.006.017h0a6.112,6.112,0,0,0,.3.707h0l.005.01-.027.014.022.055-.214.042-.189.1.092.136L17.615,75.836l-.043.019a4.679,4.679,0,0,0-1.149.709l-.252.211-.294-.148a4.824,4.824,0,0,1-2.4-5.895l.1-.3.32-.031a4.683,4.683,0,0,0,1.318-.324l.045-.018,12.3-2.416.042.215.03-.011ZM17.131,74.956l8.841-5.985L15.554,71.018a5.678,5.678,0,0,1-1.217.332,3.821,3.821,0,0,0,1.716,4.232A5.68,5.68,0,0,1,17.131,74.956Z" transform="translate(-8.085 -40.015)" fill="#c8b273"/>
      <path id="Path_128" data-name="Path 128" d="M46.053,62.97h1l.028.47c.01.168.028.339.055.522l-.989.146c-.03-.2-.051-.4-.064-.607Z" transform="translate(-27.466 -37.422)" fill="#c8b273"/>
      <path id="Path_129" data-name="Path 129" d="M52.081,75.291c-.115-.088-.23-.183-.351-.289l.659-.752c.1.087.2.17.3.247l0,0Z" transform="translate(-30.694 -43.999)" fill="#c8b273"/>
      <path id="Path_130" data-name="Path 130" d="M53.217,76.155h0c-.12-.077-.247-.165-.387-.268l.593-.805c.121.089.23.165.335.232Z" transform="translate(-31.322 -44.504)" fill="#c8b273"/>
      <path id="Path_131" data-name="Path 131" d="M60.588,77.99c.18.024.359.041.532.049l.477.022v1l-.525-.026c-.214-.011-.422-.03-.618-.057Z" transform="translate(-35.683 -46.275)" fill="#c8b273"/>
      <path id="Path_132" data-name="Path 132" d="M58.211,78.505c-.088-.021-.174-.043-.255-.065h0c-.072-.02-.138-.039-.2-.059h0l.3-.955.168.049h0c.067.018.141.037.227.058Z" transform="translate(-34.137 -45.931)" fill="#c8b273"/>
      <path id="Path_133" data-name="Path 133" d="M54.413,76.913l-.139-.075,0,0c-.094-.053-.191-.11-.3-.175h0l.525-.851c.1.06.184.111.263.155l0,0,.108.058,0,0Z" transform="translate(-31.977 -44.948)" fill="#c8b273"/>
      <path id="Path_134" data-name="Path 134" d="M44.961,76.42h0a6.083,6.083,0,0,0,.781.33h0l.015.005-.009.027.111.048-.243.362.2.039L43.427,89.645l-.017.044A4.684,4.684,0,0,0,43.1,91l-.029.327-.312.1a4.845,4.845,0,0,1-1.526.247,4.824,4.824,0,0,1-4.337-2.721l-.141-.289.2-.248a4.661,4.661,0,0,0,.7-1.16l.019-.045,7.015-10.446.065.044Zm-2.5,12.944,2.02-10.484-5.92,8.814a5.661,5.661,0,0,1-.625,1.1,3.818,3.818,0,0,0,4.206,1.779A5.67,5.67,0,0,1,42.462,89.364Z" transform="translate(-22.017 -45.319)" fill="#c8b273"/>
      <path id="Path_135" data-name="Path 135" d="M59.655,78.839c-.1-.013-.2-.029-.3-.047s-.182-.035-.267-.054l.217-.976h0c.077.017.154.032.228.046s.166.028.255.041Z" transform="translate(-34.905 -46.136)" fill="#c8b273"/>
      <path id="Path_136" data-name="Path 136" d="M69.451,75.062l.6.8h0a7.367,7.367,0,0,1-.909.58L75.9,86.431l.019.043a4.68,4.68,0,0,0,.709,1.149l.211.252-.148.294a4.835,4.835,0,0,1-2.461,2.294,4.787,4.787,0,0,1-1.847.37,4.852,4.852,0,0,1-1.586-.267l-.3-.1-.031-.32a4.669,4.669,0,0,0-.324-1.318l-.018-.045L67.688,76.425l.2-.039-.245-.361.17-.072-.009-.026.009,0A6.085,6.085,0,0,0,69.451,75.062Zm5.565,11.852-5.985-8.842,2.047,10.419a5.67,5.67,0,0,1,.333,1.217,3.839,3.839,0,0,0,.968.124,3.792,3.792,0,0,0,1.464-.293,3.832,3.832,0,0,0,1.8-1.547A5.679,5.679,0,0,1,75.016,86.915Z" transform="translate(-40.075 -44.493)" fill="#c8b273"/>
      <path id="Path_137" data-name="Path 137" d="M62.928,79.069v-1l.478-.021c.174-.008.352-.023.531-.047l.131.991c-.2.027-.407.045-.617.055Z" transform="translate(-37.397 -46.28)" fill="#c8b273"/>
      <path id="Path_138" data-name="Path 138" d="M66.7,77.455l.292.957c-.067.02-.137.04-.214.061h0l-.2.051-.235-.972.179-.045h0C66.584,77.488,66.643,77.471,66.7,77.455Z" transform="translate(-39.183 -45.949)" fill="#c8b273"/>
      <path id="Path_139" data-name="Path 139" d="M72.471,74.271l.659.753c-.064.056-.128.111-.192.163h0c-.065.053-.13.1-.193.153l-.6-.8h0c.055-.042.111-.086.165-.13h0c.053-.044.107-.089.164-.139Z" transform="translate(-42.711 -44.012)" fill="#c8b273"/>
      <path id="Path_140" data-name="Path 140" d="M65.289,77.777l.213.977c-.13.029-.264.054-.407.076l-.138.02h0l-.137-.991.12-.018C65.051,77.825,65.166,77.8,65.289,77.777Z" transform="translate(-38.257 -46.145)" fill="#c8b273"/>
      <path id="Path_141" data-name="Path 141" d="M76.149,70.092l.874.486c-.049.089-.1.171-.149.251l-.016.026-.852-.524.016-.027C76.068,70.231,76.111,70.161,76.149,70.092Z" transform="translate(-45.064 -41.469)" fill="#c8b273"/>
      <path id="Path_142" data-name="Path 142" d="M75.378,71.252l.829.56,0,0c-.058.086-.121.174-.2.284h0l-.8-.6c.057-.077.118-.159.175-.243h0Z" transform="translate(-44.573 -42.175)" fill="#c8b273"/>
      <path id="Path_143" data-name="Path 143" d="M74.515,72.324l.778.628,0,0,0,0c-.08.1-.164.2-.249.291l0,0-.742-.67C74.373,72.5,74.447,72.408,74.515,72.324Z" transform="translate(-44.022 -42.827)" fill="#c8b273"/>
      <path id="Path_144" data-name="Path 144" d="M77.671,66.309l.97.244c-.045.181-.1.355-.15.517l-.949-.317c.045-.136.087-.281.128-.443Z" transform="translate(-45.998 -39.167)" fill="#c8b273"/>
      <path id="Path_145" data-name="Path 145" d="M78.008,64.91l.988.154v0c-.03.189-.067.376-.11.554v0l-.972-.234C77.951,65.232,77.983,65.07,78.008,64.91Z" transform="translate(-46.224 -38.316)" fill="#c8b273"/>
      <path id="Path_146" data-name="Path 146" d="M79.157,64.165l-.989-.15c.027-.178.046-.354.056-.522l.029-.469h1l-.034.532C79.21,63.76,79.188,63.964,79.157,64.165Z" transform="translate(-46.379 -37.454)" fill="#c8b273"/>
      <path id="Path_147" data-name="Path 147" d="M77.037,67.634l.082.055.3.1.026-.135L89.81,70.038l.044.017a4.668,4.668,0,0,0,1.313.312l.327.029.1.312a4.823,4.823,0,0,1-2.474,5.863l-.289.141-.248-.2a4.676,4.676,0,0,0-1.161-.7l-.044-.019L76.969,68.793l.125-.186-.438-.084.064-.155-.023-.011,0-.007a6,6,0,0,0,.3-.7v0l.027.009ZM89.529,71,79.046,68.983,87.86,74.9a5.682,5.682,0,0,1,1.1.625,3.82,3.82,0,0,0,1.779-4.206A5.662,5.662,0,0,1,89.529,71Z" transform="translate(-45.484 -39.98)" fill="#c8b273"/>
      <path id="Path_148" data-name="Path 148" d="M76.143,52.679c.112.153.209.3.3.436l-.848.53c-.077-.123-.161-.246-.256-.375Z" transform="translate(-44.656 -31.233)" fill="#c8b273"/>
      <path id="Path_149" data-name="Path 149" d="M78.671,57.815c.015.049.028.1.042.149.019.073.038.148.057.229l-.974.228c-.016-.068-.032-.135-.05-.2q-.016-.061-.034-.122Z" transform="translate(-46.102 -34.172)" fill="#c8b273"/>
      <path id="Path_150" data-name="Path 150" d="M75.282,51.6c.052.059.1.121.153.182l0,.005c.051.063.1.127.149.19l-.8.6c-.042-.055-.084-.11-.127-.162h0c-.043-.053-.088-.107-.135-.161v0Z" transform="translate(-44.164 -30.616)" fill="#c8b273"/>
      <path id="Path_151" data-name="Path 151" d="M76.709,45.817l-.073-.173-.026.009h0a6.09,6.09,0,0,0-.571-1.225l.852-.524h0l0,0c.087.142.167.28.24.416l9.888-6.694.043-.019a4.676,4.676,0,0,0,1.149-.708l.252-.211.293.148a4.824,4.824,0,0,1,2.4,5.895l-.1.3-.32.031a4.668,4.668,0,0,0-1.318.324l-.045.018L77.126,45.815l-.049-.248Zm10.8-7.308-8.841,5.985,10.418-2.047a5.665,5.665,0,0,1,1.217-.332,3.821,3.821,0,0,0-1.716-4.232A5.668,5.668,0,0,1,87.5,38.509Z" transform="translate(-45.083 -21.983)" fill="#c8b273"/>
      <path id="Path_152" data-name="Path 152" d="M79.29,61.6h-1l-.016-.483c-.006-.175-.02-.356-.042-.536l.992-.123c.026.2.042.412.05.625Z" transform="translate(-46.416 -35.682)" fill="#c8b273"/>
      <path id="Path_153" data-name="Path 153" d="M79,59.119c.017.082.034.169.049.257h0c.016.1.031.191.042.284l-.992.127c-.011-.086-.023-.165-.036-.242h0c-.012-.071-.026-.145-.041-.22,0,0,0,0,0,0Z" transform="translate(-46.289 -34.917)" fill="#c8b273"/>
      <path id="Path_154" data-name="Path 154" d="M66.678,46.331h0c.09.022.177.045.26.069h0c.075.021.145.042.212.064l-.3.952q-.089-.028-.179-.054h0c-.07-.02-.147-.04-.235-.063Z" transform="translate(-39.242 -27.602)" fill="#c8b273"/>
      <path id="Path_155" data-name="Path 155" d="M64.078,46.921c-.18-.025-.361-.043-.537-.053l-1.1-.06.928-.951.227.012c.21.011.42.032.622.061Z" transform="translate(-37.48 -27.339)" fill="#c8b273"/>
      <path id="Path_156" data-name="Path 156" d="M70.7,47.9l0,0c.11.06.212.123.307.181h0l-.526.851c-.086-.053-.178-.109-.268-.159Z" transform="translate(-41.543 -28.499)" fill="#c8b273"/>
      <path id="Path_157" data-name="Path 157" d="M73.1,49.506h0l.1.08h0c.079.066.151.128.22.19l-.67.742h0c-.061-.055-.122-.108-.183-.158l0,0-.088-.072Z" transform="translate(-42.918 -29.419)" fill="#c8b273"/>
      <path id="Path_158" data-name="Path 158" d="M68.671,28.234l-.089-.036-.013.025a6.06,6.06,0,0,0-.712-.3l.011-.031-.041-.019.1-.148.082-.235-.2-.039L70.163,15.2l.017-.044a4.689,4.689,0,0,0,.312-1.314l.029-.327.312-.1a4.852,4.852,0,0,1,1.526-.247,4.826,4.826,0,0,1,4.337,2.72l.141.289-.2.248a4.7,4.7,0,0,0-.7,1.161l-.019.044L68.984,27.941l-.205-.138-.041.082Zm2.457-12.755-2.02,10.484,5.92-8.814a5.7,5.7,0,0,1,.625-1.1,3.819,3.819,0,0,0-4.206-1.779A5.687,5.687,0,0,1,71.128,15.479Z" transform="translate(-40.105 -8.056)" fill="#c8b273"/>
      <path id="Path_159" data-name="Path 159" d="M65.114,46.023c.125.018.255.041.387.068h0l.175.038-.224.974h0l-.148-.032h0c-.106-.021-.216-.041-.329-.058h0Z" transform="translate(-38.349 -27.427)" fill="#c8b273"/>
      <path id="Path_160" data-name="Path 160" d="M71.953,48.66c.1.066.2.139.312.222l-.6.8c-.1-.072-.184-.135-.269-.192Z" transform="translate(-42.259 -28.934)" fill="#c8b273"/>
      <path id="Path_161" data-name="Path 161" d="M28.722,32.635,17.954,25.4a5.672,5.672,0,0,1-1.364-.833c-.146-.121-.276-.239-.4-.361a5.672,5.672,0,1,1,8.022-8.022c.1.1.211.221.333.367a5.691,5.691,0,0,1,.841,1.351l7.277,10.749-.547.242c-.065.029-.134.065-.206.1l-.092.048-.057.028-.061.031c-.121.065-.242.139-.335.2l-.035.022-.095.059c-.094.061-.2.134-.314.222l-.03.023-.085.065c-.1.079-.2.165-.3.256a6.214,6.214,0,0,0-.518.524c-.088.1-.177.21-.264.323l-.064.085c-.087.118-.169.238-.243.355l0,.006-.018.03-.025.04c-.087.142-.159.27-.221.389l-.006.012-.014.029-.037.072c-.048.094-.093.183-.131.27ZM20.2,15.525A4.672,4.672,0,0,0,16.9,23.5c.1.1.208.2.33.3a4.67,4.67,0,0,0,1.16.7l.045.019,9.873,6.631c.062-.115.131-.235.211-.365l0-.008.016-.026.034-.055c.086-.136.181-.274.281-.411l.075-.1c.1-.13.2-.257.306-.374a7.22,7.22,0,0,1,.6-.609c.119-.107.238-.206.353-.3l.1-.079.029-.022c.135-.1.255-.186.369-.261l.118-.074.031-.019c.092-.057.212-.131.342-.2l-6.675-9.86-.019-.043a4.69,4.69,0,0,0-.709-1.15c-.1-.122-.189-.218-.273-.3A4.642,4.642,0,0,0,20.2,15.525Z" transform="translate(-8.862 -8.859)" fill="#c8b273"/>
      <path id="Path_162" data-name="Path 162" d="M5.672,60.942a5.672,5.672,0,0,1,0-11.345c.152,0,.31.008.5.024a5.674,5.674,0,0,1,1.549.361L20.51,52.446,20.3,53c-.011.028-.021.062-.033.1s-.019.06-.029.089l-.009.025c-.026.074-.05.143-.071.212-.035.116-.065.238-.093.353l-.009.037c-.008.033-.016.065-.023.1-.031.146-.058.3-.081.472,0,.011,0,.022,0,.033-.022.168-.037.347-.044.532,0,.036,0,.072-.006.108s-.006.087-.006.124c0,.089.006.181.013.279q0,.046.006.092c.011.176.029.352.055.521h0l0,.033c.026.168.055.32.091.468l.025.1c.038.149.075.279.114.4.013.038.027.077.041.117l.011.03c.013.036.024.071.036.106s.032.1.048.138l.223.56L7.764,60.54a5.665,5.665,0,0,1-1.554.375C6.02,60.933,5.845,60.942,5.672,60.942Zm0-10.345a4.672,4.672,0,0,0,0,9.345c.141,0,.286-.007.444-.022A4.667,4.667,0,0,0,7.432,59.6l.045-.018,11.738-2.306c-.033-.107-.065-.222-.1-.348-.01-.04-.019-.078-.028-.116-.042-.175-.076-.353-.105-.543l-.006-.04c-.03-.2-.051-.4-.064-.608l-.006-.087c-.007-.11-.015-.224-.015-.346,0-.068,0-.132.008-.187,0-.028,0-.056,0-.084.009-.217.026-.428.052-.628l0-.013v0l0-.016c.027-.2.058-.381.1-.555.009-.042.019-.084.029-.125l.008-.034c.025-.1.053-.218.087-.336L7.437,50.946l-.044-.017a4.674,4.674,0,0,0-1.313-.312C5.924,50.6,5.794,50.6,5.672,50.6Z" transform="translate(-0.295 -29.537)" fill="#c8b273"/>
      <path id="Path_163" data-name="Path 163" d="M28.748,68.328l.244.543c.025.055.055.114.088.176l.052.1.036.071c.014.028.027.056.042.083.055.1.118.2.179.3l.031.05c.022.036.044.072.067.107.067.1.138.2.2.287l.023.03c.029.038.057.076.086.113.069.087.145.177.233.274a6.131,6.131,0,0,0,.52.514c.1.086.2.169.3.248l.1.077c.119.088.229.164.335.232l.04.025.052.032c.133.082.256.153.373.214l.013.006.032.016.059.03c.1.051.194.1.288.141l.55.239L25.4,83.1a5.661,5.661,0,0,1-.834,1.363c-.12.145-.238.276-.362.4a5.634,5.634,0,0,1-4.01,1.661h0a5.672,5.672,0,0,1-4.011-9.683c.108-.108.229-.218.368-.334a5.676,5.676,0,0,1,1.35-.84Zm2.469,4.323c-.115-.062-.234-.132-.363-.212l-.038-.023-.065-.04c-.124-.079-.251-.167-.388-.268l-.12-.09c-.119-.092-.238-.189-.35-.289a7.124,7.124,0,0,1-.6-.6c-.1-.113-.19-.217-.271-.319-.035-.043-.069-.089-.1-.134l-.023-.031c-.078-.1-.159-.215-.238-.333-.031-.046-.06-.093-.088-.139l-.028-.045c-.06-.1-.128-.207-.192-.322l-9.959,6.742-.043.019a4.677,4.677,0,0,0-1.149.708c-.116.1-.215.187-.3.274A4.672,4.672,0,1,0,23.5,84.157c.1-.1.2-.208.3-.328a4.663,4.663,0,0,0,.7-1.161l.019-.045Z" transform="translate(-8.858 -40.726)" fill="#c8b273"/>
      <path id="Path_164" data-name="Path 164" d="M52.469,76.841l.56.219c.042.016.09.032.141.049l.107.036.058.02c.038.013.075.027.113.038.112.035.234.068.4.107l.041.01.055.013c.151.034.308.063.485.088l.021,0c.17.024.348.04.528.049l.112.007c.065,0,.127.008.183.008s.1,0,.162-.007l.114-.007c.182-.008.36-.025.528-.048l.022,0c.17-.024.324-.051.471-.083l.116-.028.007,0c.119-.029.242-.06.361-.1.066-.021.135-.044.207-.07l.01,0,.094-.031c.037-.012.072-.023.1-.034l.555-.213L60.54,89.708a5.661,5.661,0,0,1,.375,1.553c.018.187.027.364.027.538a5.672,5.672,0,1,1-11.345,0c0-.155.008-.318.024-.5a5.673,5.673,0,0,1,.36-1.549Zm2.8,1.648c-.089,0-.17-.005-.249-.01l-.1-.006c-.209-.01-.417-.03-.619-.057l-.022,0c-.2-.029-.388-.062-.562-.1l-.08-.019-.033-.008c-.146-.035-.269-.068-.38-.1L50.946,90.034l-.017.044a4.675,4.675,0,0,0-.311,1.314c-.014.15-.02.283-.02.408a4.672,4.672,0,1,0,9.345,0c0-.142-.007-.287-.022-.442a4.662,4.662,0,0,0-.324-1.317l-.018-.045L57.26,78.2c-.115.033-.226.061-.33.086h0l-.144.035c-.173.038-.352.07-.546.1l-.033,0c-.2.027-.4.045-.611.055l-.1.006C55.427,78.484,55.351,78.489,55.269,78.489Z" transform="translate(-29.537 -45.709)" fill="#c8b273"/>
      <path id="Path_165" data-name="Path 165" d="M72.244,68.452,83.066,75.72a5.66,5.66,0,0,1,1.363.834c.146.12.276.239.4.362a5.672,5.672,0,1,1-8.022,8.022c-.107-.107-.217-.228-.334-.367a5.689,5.689,0,0,1-.841-1.351L68.26,72.328l.559-.238a6.115,6.115,0,0,0,1.248-.724l.052-.039c.109-.083.221-.174.331-.271a6.135,6.135,0,0,0,.512-.5c.076-.084.15-.171.221-.259.041-.051.085-.107.134-.173.074-.1.129-.175.178-.247s.089-.137.137-.215l.007-.011c.049-.079.1-.154.137-.228s.069-.132.105-.2l.022-.045c.015-.031.032-.062.049-.094s.034-.064.046-.09ZM80.818,85.6a4.672,4.672,0,0,0,3.3-7.976c-.1-.1-.208-.2-.329-.3a4.661,4.661,0,0,0-1.16-.7l-.045-.019-9.947-6.68c-.05.088-.1.171-.151.252l-.006.01c-.054.087-.1.168-.16.25s-.124.177-.207.288c-.056.074-.106.139-.155.2-.083.1-.17.2-.258.3a7.127,7.127,0,0,1-.595.586c-.128.112-.257.218-.386.316l-.034.026-.023.017a7.451,7.451,0,0,1-.913.583l6.759,9.985.019.043a4.686,4.686,0,0,0,.708,1.15c.1.116.187.215.274.3A4.642,4.642,0,0,0,80.818,85.6Z" transform="translate(-40.691 -40.797)" fill="#c8b273"/>
      <path id="Path_166" data-name="Path 166" d="M91.871,49.6a5.672,5.672,0,0,1,0,11.345c-.152,0-.309-.008-.5-.024a5.676,5.676,0,0,1-1.55-.361L76.954,58.084l.231-.565c.027-.067.052-.141.079-.219l.032-.094.015-.042.013-.035c.045-.133.086-.274.129-.445l.01-.04.007-.028c.037-.156.069-.318.095-.481v-.008c0-.006,0-.012,0-.018V56.1c.026-.173.045-.349.057-.522l.006-.091c.007-.106.014-.205.014-.3,0-.029,0-.063,0-.1s0-.073-.006-.11c-.006-.181-.021-.361-.043-.533l0-.029c-.022-.17-.048-.322-.078-.463-.009-.043-.019-.084-.029-.125l-.008-.034c-.029-.122-.055-.224-.083-.321s-.057-.182-.083-.258c-.01-.029-.019-.058-.028-.086s-.014-.047-.023-.07l-.2-.55,12.724-2.5a5.661,5.661,0,0,1,1.553-.375C91.523,49.613,91.7,49.6,91.871,49.6Zm0,10.345a4.672,4.672,0,0,0,0-9.345c-.141,0-.286.007-.444.022a4.661,4.661,0,0,0-1.316.324l-.045.018-11.693,2.3c.026.092.049.187.075.294l.008.033c.012.051.024.1.035.152.035.164.064.338.09.532,0,.014,0,.028.006.042.025.2.042.411.05.623,0,.028,0,.054,0,.08,0,.049.007.1.007.166,0,.13-.008.252-.017.37l-.006.086c-.013.2-.035.4-.065.6,0,.015,0,.03-.007.045-.03.188-.066.376-.11.557l-.011.045-.009.034c-.038.149-.074.278-.112.4L90.106,59.6l.044.017a4.675,4.675,0,0,0,1.314.312C91.62,59.942,91.749,59.949,91.871,59.949Z" transform="translate(-45.781 -29.541)" fill="#c8b273"/>
      <path id="Path_167" data-name="Path 167" d="M72.518,32.7l-.236-.562a6.059,6.059,0,0,0-.431-.824l-.02-.033,0,0c-.077-.123-.16-.245-.255-.374l-.025-.034-.03-.042c-.081-.107-.17-.216-.262-.323a6.145,6.145,0,0,0-.527-.537c-.085-.077-.175-.153-.275-.233-.051-.04-.1-.081-.157-.121-.1-.072-.184-.135-.267-.19-.064-.043-.13-.084-.192-.122-.1-.059-.182-.111-.269-.159-.053-.029-.11-.057-.17-.088l-.042-.021-.1-.05c-.04-.021-.077-.041-.11-.056l-.539-.243,7.2-10.726a5.671,5.671,0,0,1,.833-1.363c.121-.147.24-.278.363-.4a5.672,5.672,0,0,1,8.021,8.022c-.108.108-.229.218-.368.334a5.676,5.676,0,0,1-1.35.84Zm.177-1.922.005.008c.088.143.169.283.242.419l9.888-6.694.043-.019a4.676,4.676,0,0,0,1.149-.708c.116-.1.215-.187.3-.274A4.672,4.672,0,1,0,77.718,16.9c-.1.1-.2.207-.3.329a4.671,4.671,0,0,0-.7,1.16l-.019.045L70.085,28.28c.094.053.184.108.276.164.071.044.147.091.224.143.1.066.2.139.313.222.061.046.121.092.18.139.117.094.221.182.321.272a7.15,7.15,0,0,1,.613.625c.107.124.21.25.305.376l.042.057.02.028c.11.149.207.292.3.436l.017.028Z" transform="translate(-40.893 -8.861)" fill="#c8b273"/>
      <path id="Path_168" data-name="Path 168" d="M58.107,20.47l-.561-.222c-.043-.017-.094-.034-.147-.051l-.108-.037-.057-.02-.088-.031c-.117-.038-.247-.074-.41-.115l-.014,0-.077-.019c-.151-.035-.314-.066-.482-.091l-.022,0c-.176-.025-.355-.043-.536-.053l-.109-.007c-.078-.005-.152-.01-.221-.01s-.128,0-.2.009l-.108.007c-.177.009-.355.026-.53.05l-.026,0c-.175.025-.328.054-.474.087l-.119.029c-.146.036-.264.069-.374.1-.065.021-.133.044-.19.065l-.1.034c-.037.012-.073.023-.1.034l-.556.215L50.005,7.764a5.676,5.676,0,0,1-.375-1.553c-.018-.19-.027-.366-.027-.538a5.672,5.672,0,1,1,11.345,0c0,.155-.008.318-.024.5a5.679,5.679,0,0,1-.36,1.548Zm-2.834-1.662c.1,0,.2.006.287.012l.1.006c.21.011.419.032.622.061l.024,0c.2.029.388.065.566.107l.093.023.014,0c.14.035.26.068.37.1L59.6,7.437l.017-.044a4.682,4.682,0,0,0,.311-1.313c.014-.15.02-.283.02-.408a4.672,4.672,0,1,0-9.345,0c0,.141.007.286.022.444a4.674,4.674,0,0,0,.324,1.316l.018.045,2.285,11.632c.1-.029.2-.057.324-.087l.137-.033c.172-.039.351-.072.548-.1l.032,0c.206-.029.415-.049.622-.059l.095-.006C55.094,18.813,55.18,18.807,55.273,18.807Z" transform="translate(-29.541 -0.295)" fill="#c8b273"/>
    </g>
  </g>
</svg>
