<svg id="icon-email" xmlns="http://www.w3.org/2000/svg" width="104" height="105" viewBox="0 0 104 105">
  <g id="Rectangle_5691" data-name="Rectangle 5691" fill="#fcfeff" stroke="#c8b273" stroke-width="3">
    <path d="M11,0H91a13,13,0,0,1,13,13V94a11,11,0,0,1-11,11H11A11,11,0,0,1,0,94V11A11,11,0,0,1,11,0Z" stroke="none"/>
    <path d="M11,1.5H91A11.5,11.5,0,0,1,102.5,13V94a9.5,9.5,0,0,1-9.5,9.5H11A9.5,9.5,0,0,1,1.5,94V11A9.5,9.5,0,0,1,11,1.5Z" fill="none"/>
  </g>
  <g id="Group_205" data-name="Group 205" transform="translate(20.99 28.686)">
    <path id="Path_69" data-name="Path 69" d="M64,52.846H2.068A1.068,1.068,0,0,1,1,51.778V17.61a1.068,1.068,0,1,1,2.136,0v33.1H62.93V9.068a1.068,1.068,0,1,1,2.136,0v42.71A1.068,1.068,0,0,1,64,52.846Z" transform="translate(-1 -3.729)" fill="#c8b273"/>
    <path id="Path_70" data-name="Path 70" d="M2.068,50.846a1.067,1.067,0,0,1-.643-1.918L20.4,34.535a1.067,1.067,0,1,1,1.288,1.7L2.713,50.63A1.07,1.07,0,0,1,2.068,50.846Zm61.93,0a1.058,1.058,0,0,1-.645-.218L44.272,36.151a1.067,1.067,0,1,1,1.288-1.7L64.641,48.926A1.069,1.069,0,0,1,64,50.846ZM33.033,38.573a6.225,6.225,0,0,1-3.97-1.373L4.679,17.019C2.617,15.315,1,12.351,1,10.271v-3.2A1.068,1.068,0,0,1,2.068,6H64a1.068,1.068,0,0,1,1.068,1.068v3.2c0,2.08-1.617,5.044-3.679,6.75L37,37.2A6.215,6.215,0,0,1,33.033,38.573ZM3.136,8.136v2.136c0,1.441,1.358,3.825,2.9,5.1L30.421,35.556a4.425,4.425,0,0,0,5.221,0L60.026,15.377c1.546-1.281,2.9-3.665,2.9-5.106V8.136Z" transform="translate(-1 -6)" fill="#c8b273"/>
    <path id="Path_71" data-name="Path 71" d="M33.033,38.573a6.225,6.225,0,0,1-3.97-1.373L4.679,17.019C2.617,15.315,1,12.351,1,10.271v-3.2A1.068,1.068,0,0,1,2.068,6H64a1.068,1.068,0,0,1,1.068,1.068v3.2c0,2.08-1.617,5.044-3.679,6.75L37,37.2A6.215,6.215,0,0,1,33.033,38.573ZM3.136,8.136v2.136c0,1.441,1.358,3.825,2.9,5.1L30.421,35.556a4.425,4.425,0,0,0,5.221,0L60.026,15.377c1.546-1.281,2.9-3.665,2.9-5.106V8.136Z" transform="translate(-1 -6)" fill="#c8b273"/>
  </g>
</svg>
