<svg id="icon-neighbourhoodtour" xmlns="http://www.w3.org/2000/svg" width="90" height="91" viewBox="0 0 90 91">
  <g id="Group_108" data-name="Group 108" transform="translate(-8386 1848)">
    <g id="Rectangle_102" data-name="Rectangle 102" transform="translate(8386 -1848)" fill="#c8b273" stroke="#c8b273" stroke-width="3">
      <path d="M11,0H77A13,13,0,0,1,90,13V80A11,11,0,0,1,79,91H11A11,11,0,0,1,0,80V11A11,11,0,0,1,11,0Z" stroke="none"/>
      <path d="M11,1.5H77A11.5,11.5,0,0,1,88.5,13V80A9.5,9.5,0,0,1,79,89.5H11A9.5,9.5,0,0,1,1.5,80V11A9.5,9.5,0,0,1,11,1.5Z" fill="none"/>
    </g>
  </g>
  <g id="Group_109" data-name="Group 109" transform="translate(-8257 1848)">
    <path id="Path_82" data-name="Path 82" d="M54.7,29.684a13.412,13.412,0,0,0-6.58-8.8V6.016a.858.858,0,0,0-.587-.815L32.068.045c-.023-.008-.047,0-.07-.006a1.136,1.136,0,0,0-.406,0c-.022.006-.046,0-.068.006l-15.2,5.066L1.131.045A.843.843,0,0,0,.357.163.859.859,0,0,0,0,.86V40.391a.861.861,0,0,0,.587.816l15.469,5.156a.869.869,0,0,0,.544,0l12.945-4.309a58.277,58.277,0,0,0,9.722,11.738l.928.935a.989.989,0,0,0,.666.274l.032,0c.975-.04,3.845-3.369,5.034-4.8.549-.656,1.108-1.3,1.665-1.937a34.62,34.62,0,0,0,5.428-7.5,19.182,19.182,0,0,0,1.949-7.152,14.974,14.974,0,0,0-.265-3.927ZM15.469,44.355,1.719,39.771V2.053l13.75,4.583Zm17.187-42.3,13.75,4.583v13.4A14.559,14.559,0,0,0,38.9,19.027a14.141,14.141,0,0,0-6.244,2.444Zm-15.469,42.3V6.636l13.75-4.583V22.878a13.743,13.743,0,0,0-3.86,13.079,21.684,21.684,0,0,0,1.654,4.556Zm34.289-4.344a32.876,32.876,0,0,1-5.18,7.123c-.564.648-1.131,1.3-1.69,1.967-.676.814-2.719,3.1-3.659,3.943l-.46-.465c-4.77-4.8-10.175-10.24-11.736-17.009a12.015,12.015,0,0,1,1.841-9.661,12.359,12.359,0,0,1,8.532-5.179,12.812,12.812,0,0,1,1.673-.11,13.019,13.019,0,0,1,5.985,1.471.827.827,0,0,0,.218.114A11.721,11.721,0,0,1,53.02,30.03a13.219,13.219,0,0,1,.233,3.478,17.473,17.473,0,0,1-1.778,6.5Z" transform="translate(8276 -1826.999)" fill="#fcfeff"/>
    <path id="Ellipse_19_-_Outline" data-name="Ellipse 19 - Outline" d="M7,1.5A5.5,5.5,0,1,0,12.5,7,5.506,5.506,0,0,0,7,1.5M7,0A7,7,0,1,1,0,7,7,7,0,0,1,7,0Z" transform="translate(8310 -1801)" fill="#fcfeff"/>
  </g>
</svg>