<svg id="icon-googleorbit" xmlns="http://www.w3.org/2000/svg" width="90" height="91" viewBox="0 0 90 91">
  <g id="Group_107" data-name="Group 107" transform="translate(-8386 1848)">
    <g id="Rectangle_102" data-name="Rectangle 102" transform="translate(8386 -1848)" fill="#fcfeff" stroke="#c8b273" stroke-width="3">
      <path d="M11,0H77A13,13,0,0,1,90,13V80A11,11,0,0,1,79,91H11A11,11,0,0,1,0,80V11A11,11,0,0,1,11,0Z" stroke="none"/>
      <path d="M11,1.5H77A11.5,11.5,0,0,1,88.5,13V80A9.5,9.5,0,0,1,79,89.5H11A9.5,9.5,0,0,1,1.5,80V11A9.5,9.5,0,0,1,11,1.5Z" fill="none"/>
    </g>
  </g>
  <g id="Group_226" data-name="Group 226" transform="translate(-14380 199)">
    <path id="Polygon_1" data-name="Polygon 1" d="M17.15,2,2.314,27.5,17.15,53h29.7L61.686,27.5,46.85,2H17.15M16,0H48L64,27.5,48,55H16L0,27.5Z" transform="translate(14453 -185) rotate(90)" fill="#c8b273"/>
    <g id="Group_103" data-name="Group 103" transform="translate(14406.589 -173.965)">
      <path id="Path_79" data-name="Path 79" d="M68.613,10.759a.625.625,0,0,0-.277-.256L61.51,6.6a.628.628,0,0,0-.182-.1L57.187,4.135a.628.628,0,0,0-.181-.1L50.147.113a.629.629,0,0,0-.624,0L31.334,10.5a.627.627,0,0,0-.358.619V31.9a.629.629,0,0,0,.317.546l18.23,10.413a.629.629,0,0,0,.624,0l18.23-10.413a.629.629,0,0,0,.317-.546V11.122a.625.625,0,0,0-.08-.363ZM49.835,1.383,66.8,11.072,49.835,20.761,32.872,11.072Zm-.587,39.868L32.234,31.533V12.155c9.888,5.644,17.013,9.584,17.015,9.719Zm.587-20.49L66.8,11.072Zm17.6,10.772L50.505,41.2V21.826l16.931-9.671Z" transform="translate(-30.974 -0.031)" fill="#c8b273"/>
      <path id="Path_79_-_Outline" data-name="Path 79 - Outline" d="M49.835-.469a1.131,1.131,0,0,1,.56.149l6.828,3.9a1.124,1.124,0,0,1,.244.139l4.079,2.33a1.123,1.123,0,0,1,.244.139l6.78,3.873a1.127,1.127,0,0,1,.624,1.08V31.9a1.131,1.131,0,0,1-.569.98L50.395,43.291a1.129,1.129,0,0,1-1.119,0L31.045,32.878a1.131,1.131,0,0,1-.569-.98V11.14a1.133,1.133,0,0,1,.624-1.079L49.275-.321A1.13,1.13,0,0,1,49.835-.469Zm0,42.909a.129.129,0,0,0,.064-.017L68.129,32.01a.129.129,0,0,0,.065-.112l0-20.817a.127.127,0,0,0-.072-.125l-.035-.018-6.863-3.92-.032-.027a.127.127,0,0,0-.037-.021l-.039-.014L56.9,4.548l-.032-.027a.127.127,0,0,0-.037-.021l-.039-.014L49.9.548a.131.131,0,0,0-.128,0L31.547,10.955a.128.128,0,0,0-.072.125l0,.041V31.9a.129.129,0,0,0,.065.112l18.23,10.413A.129.129,0,0,0,49.835,42.439Zm0-41.632L67.806,11.072,49.835,21.337,31.864,11.072ZM65.789,11.072,49.835,1.959,33.88,11.072l15.954,9.113Zm2.147.222V31.823L50.005,42.065V21.536Zm-1,19.949V13.017l-15.931,9.1V40.342Zm-35.2-19.949.748.427c3.894,2.223,7.351,4.177,10.129,5.747,2.153,1.217,3.854,2.178,5.043,2.86.624.358,1.074.62,1.376.8.519.312.714.429.719.737V42.113L31.734,31.823ZM48.748,22.128c-.7-.44-3.356-1.941-6.629-3.79-2.6-1.469-5.794-3.275-9.385-5.322V31.243L48.748,40.39Z" transform="translate(-30.974 -0.031)" fill="#c8b273"/>
    </g>
  </g>
</svg>
