<svg xmlns="http://www.w3.org/2000/svg" width="104" height="105" viewBox="0 0 104 105">
  <g id="Rectangle_5700" data-name="Rectangle 5700" fill="#c8b273" stroke="#c8b273" stroke-width="3">
    <path d="M11,0H91a13,13,0,0,1,13,13V94a11,11,0,0,1-11,11H11A11,11,0,0,1,0,94V11A11,11,0,0,1,11,0Z" stroke="none"/>
    <path d="M11,1.5H91A11.5,11.5,0,0,1,102.5,13V94a9.5,9.5,0,0,1-9.5,9.5H11A9.5,9.5,0,0,1,1.5,94V11A9.5,9.5,0,0,1,11,1.5Z" fill="none"/>
  </g>
  <g id="Group_210" data-name="Group 210" transform="translate(20.26 29.833)">
    <text id="Light" transform="translate(9.74 26.167)" fill="#fcfeff" font-size="25" font-family="Nobel-Book, Nobel"><tspan x="0" y="0">360</tspan></text>
    <g id="Ellipse_9" data-name="Ellipse 9" transform="translate(53.74 0.167)" fill="none" stroke="#c8b273" stroke-width="2">
      <ellipse cx="5" cy="4.5" rx="5" ry="4.5" stroke="none"/>
      <ellipse cx="5" cy="4.5" rx="4" ry="3.5" fill="none"/>
    </g>
    <g id="Group_211" data-name="Group 211">
      <path id="Path_76" data-name="Path 76" d="M1771.412,165.684a49.034,49.034,0,0,1-8.233-.738,41.77,41.77,0,0,1-8.6-2.422,29.029,29.029,0,0,1-8.494-5.208c-2.95-2.655-4.212-5.379-3.751-8.1.893-5.261,8.023-8.3,8.326-8.429a1,1,0,1,1,.772,1.845c-.1.043-6.424,2.759-7.127,6.923-.337,2,.712,4.105,3.118,6.27,4.941,4.446,11.48,6.34,16.1,7.146a44.648,44.648,0,0,0,8.939.688,1,1,0,1,1,.1,2C1772.515,165.664,1772.106,165.684,1771.412,165.684Z" transform="translate(-1743.247 -123.553)" fill="#fcfeff"/>
      <path id="Path_77" data-name="Path 77" d="M6.67,11.385l-.56-.56L4.776,9.491,3.154,7.869,1.759,6.474c-.226-.226-.449-.455-.679-.679l-.01-.01v.889l.56-.56L2.965,4.78,4.587,3.158,5.981,1.763c.226-.226.455-.45.679-.679l.01-.01A.646.646,0,0,0,6.854.629.641.641,0,0,0,6.67.184.633.633,0,0,0,6.225,0,.66.66,0,0,0,5.78.184l-.56.56L3.885,2.079,2.263,3.7.869,5.1c-.226.226-.455.45-.679.679l-.01.01a.638.638,0,0,0,0,.889l.561.562L2.076,8.57,3.7,10.192l1.394,1.394c.226.226.45.455.679.679l.01.01a.631.631,0,0,0,.89,0,.633.633,0,0,0,.184-.445.662.662,0,0,0-.185-.445Z" transform="translate(30.357 47.238) rotate(180)" fill="#fcfeff"/>
      <path id="Path_77_-_Outline" data-name="Path 77 - Outline" d="M6.227,12.959a1.153,1.153,0,0,1-.8-.33l-.008-.008c-.155-.152-.309-.306-.458-.456l-.224-.225L.625,7.826.57,7.881v-.11L.387,7.589l-.28-.281-.281-.282a1.138,1.138,0,0,1,0-1.595l.008-.008c.151-.155.306-.308.455-.456l.226-.224L.57,4.687V4.578l.054.054,4.8-4.8A1.155,1.155,0,0,1,6.2-.5h.044A1.129,1.129,0,0,1,7.354.629a1.153,1.153,0,0,1-.33.8l-.007.007c-.151.155-.307.309-.457.458l-.225.224L2.222,6.23l4.8,4.8a1.156,1.156,0,0,1,.331.772,1.127,1.127,0,0,1-1.128,1.155ZM1.332,7.119l4.114,4.114.227.228c.147.148.3.3.448.447l.014.014a.148.148,0,0,0,.092.037.176.176,0,0,0,.08-.026.194.194,0,0,0,.049-.081.174.174,0,0,0-.039-.113l-4.8-4.8Zm.1-1.68.084.083L5.628,1.41l.228-.227c.148-.147.3-.3.447-.448L6.316.721A.149.149,0,0,0,6.354.629a.176.176,0,0,0-.026-.08A.188.188,0,0,0,6.246.5a.171.171,0,0,0-.114.039l-4.8,4.8Z" transform="translate(30.357 47.238) rotate(180)" fill="#fcfeff"/>
      <path id="Path_78" data-name="Path 78" d="M1777.124,165.6a1,1,0,0,1-.116-1.993,72.327,72.327,0,0,0,10.284-2.148c6.876-2,11.347-4.655,12.928-7.682a6.6,6.6,0,0,0,.623-5.413c-1.214-3.387-5.356-5.175-5.4-5.192a1,1,0,0,1,.776-1.843c.2.085,4.981,2.132,6.5,6.349a8.512,8.512,0,0,1-.728,7.027c-1.869,3.576-6.636,6.5-14.169,8.684a72.953,72.953,0,0,1-10.58,2.206A1.013,1.013,0,0,1,1777.124,165.6Z" transform="translate(-1737.973 -123.47)" fill="#fcfeff"/>
    </g>
  </g>
</svg>
