<svg xmlns="http://www.w3.org/2000/svg" xmlns:xlink="http://www.w3.org/1999/xlink" width="90" height="91" viewBox="0 0 90 91">
  <defs>
    <clipPath id="clip-path">
      <rect id="Rectangle_270" data-name="Rectangle 270" width="54.898" height="50.484" fill="#fcfeff"/>
    </clipPath>
  </defs>
  <g id="Rectangle_5703" data-name="Rectangle 5703" fill="#c8b273" stroke="#c8b273" stroke-width="3">
    <path d="M11,0H77A13,13,0,0,1,90,13V80A11,11,0,0,1,79,91H11A11,11,0,0,1,0,80V11A11,11,0,0,1,11,0Z" stroke="none"/>
    <path d="M11,1.5H77A11.5,11.5,0,0,1,88.5,13V80A9.5,9.5,0,0,1,79,89.5H11A9.5,9.5,0,0,1,1.5,80V11A9.5,9.5,0,0,1,11,1.5Z" fill="none"/>
  </g>
  <g id="Group_224" data-name="Group 224" transform="translate(17.551 20.258)">
    <g id="Group_140" data-name="Group 140" transform="translate(0 0.001)" clip-path="url(#clip-path)">
      <path id="Ellipse_23" data-name="Ellipse 23" d="M2.117-.5A2.617,2.617,0,1,1-.5,2.117,2.62,2.62,0,0,1,2.117-.5Zm0,4.235A1.617,1.617,0,1,0,.5,2.117,1.619,1.619,0,0,0,2.117,3.735Z" transform="translate(42.48 1.594)" fill="#fcfeff"/>
      <path id="Ellipse_24" data-name="Ellipse 24" d="M2.117-.5A2.617,2.617,0,1,1-.5,2.117,2.62,2.62,0,0,1,2.117-.5Zm0,4.235A1.617,1.617,0,1,0,.5,2.117,1.619,1.619,0,0,0,2.117,3.735Z" transform="translate(43.48 40.874)" fill="#fcfeff"/>
      <path id="Ellipse_25" data-name="Ellipse 25" d="M2.117-.5A2.617,2.617,0,1,1-.5,2.117,2.62,2.62,0,0,1,2.117-.5Zm0,4.235A1.617,1.617,0,1,0,.5,2.117,1.619,1.619,0,0,0,2.117,3.735Z" transform="translate(4.533 29.362)" fill="#fcfeff"/>
      <path id="Line_20" data-name="Line 20" d="M0,16.6a.5.5,0,0,1-.352-.145.5.5,0,0,1,0-.707L15.588-.352a.5.5,0,0,1,.707,0,.5.5,0,0,1,0,.707L.355,16.453A.5.5,0,0,1,0,16.6Z" transform="translate(6.329 0.313)" fill="#fcfeff"/>
      <path id="Path_169" data-name="Path 169" d="M9.587,5.948a3.954,3.954,0,0,1,2.7,1.076,4.549,4.549,0,0,1,1.357-.207,4.61,4.61,0,0,1,4.6,4.6,4.547,4.547,0,0,1-.171,1.231,3.948,3.948,0,0,1-3.7,6.7A3.9,3.9,0,0,1,14.8,21.12a3.951,3.951,0,0,1-7.4,1.923,3.95,3.95,0,1,1-5.373-5.374,3.951,3.951,0,0,1,3.687-6.987A3.952,3.952,0,0,1,9.587,5.948ZM12.157,8.1a.5.5,0,0,1-.373-.166A2.947,2.947,0,0,0,6.637,9.9a2.922,2.922,0,0,0,.575,1.744.5.5,0,0,1-.064.665l-.154.141a.5.5,0,0,1-.73-.058,2.949,2.949,0,1,0-2.894,4.721.5.5,0,0,1,.4.49v.136a.5.5,0,0,1-.4.49A2.951,2.951,0,1,0,6.843,21.7a.5.5,0,0,1,.49-.4h.136a.5.5,0,0,1,.49.4A2.951,2.951,0,0,0,13.8,21.12a2.923,2.923,0,0,0-.862-2.071.5.5,0,0,1,.016-.721l.262-.241a.5.5,0,0,1,.6-.056A2.947,2.947,0,0,0,17.2,13.208a.5.5,0,0,1-.161-.563,3.6,3.6,0,0,0-4.7-4.578A.5.5,0,0,1,12.157,8.1Z" transform="translate(-0.186 -2.403)" fill="#fcfeff"/>
      <path id="Path_170" data-name="Path 170" d="M19.713,71.937a.5.5,0,0,1-.172-.03,5.3,5.3,0,0,1-.553.03c-3.624,0-6.573-3.444-6.573-7.678s2.948-7.678,6.573-7.678c.133,0,.263.008.384.018a.5.5,0,0,1,.085-.015c.014,0,.066-.005.156-.005a11.032,11.032,0,0,1,4.028,1.056,44.612,44.612,0,0,1,9.923,6.233.5.5,0,0,1-.006.789c-.02.016-2.077,1.588-4.773,3.257-3.645,2.255-6.668,3.607-8.985,4.017A.5.5,0,0,1,19.713,71.937Zm-.725-14.356c-3.073,0-5.573,3-5.573,6.678s2.5,6.678,5.573,6.678a4.7,4.7,0,0,0,.648-.049.5.5,0,0,1,.209.015c4.466-.9,10.752-5.314,12.585-6.655a42.4,42.4,0,0,0-9.176-5.692,10.56,10.56,0,0,0-3.58-.978.5.5,0,0,1-.228.031C19.3,57.6,19.142,57.581,18.989,57.581Z" transform="translate(-4.812 -21.267)" fill="#fcfeff"/>
      <path id="Line_21" data-name="Line 21" d="M17.41.5H0A.5.5,0,0,1-.5,0,.5.5,0,0,1,0-.5H17.41a.5.5,0,0,1,.5.5A.5.5,0,0,1,17.41.5Z" transform="translate(2.51 42.715)" fill="#fcfeff"/>
      <path id="Line_22" data-name="Line 22" d="M0,30.458a.5.5,0,0,1-.5-.5V0A.5.5,0,0,1,0-.5.5.5,0,0,1,.5,0V29.958A.5.5,0,0,1,0,30.458Z" transform="translate(36.389 13.959)" fill="#fcfeff"/>
      <path id="Path_171" data-name="Path 171" d="M55.764,38.714a.5.5,0,0,1-.181-.034l-3.764-1.464a.5.5,0,0,1,.362-.932l3.581,1.392,3.477-1.39a.5.5,0,0,1,.371.928l-3.66,1.464A.5.5,0,0,1,55.764,38.714Z" transform="translate(-19.375 -13.693)" fill="#fcfeff"/>
      <path id="Path_172" data-name="Path 172" d="M55.578,48.7a.5.5,0,0,1-.27-.079L51.23,46a.5.5,0,1,1,.54-.842L55.6,47.616l4.444-2.469a.5.5,0,1,1,.486.874l-4.706,2.614A.5.5,0,0,1,55.578,48.7Z" transform="translate(-19.189 -16.985)" fill="#fcfeff"/>
      <path id="Path_173" data-name="Path 173" d="M58,42.127a.5.5,0,0,1-.435-.745,6.416,6.416,0,0,1,4.789-3.308,8.246,8.246,0,0,1,2.185-.028,4.552,4.552,0,0,1,1.642-3.832L66.2,34.2a4.775,4.775,0,0,1,4.222-.159,5.287,5.287,0,0,1,.8-3.557,6.518,6.518,0,0,1,2.451-2.127,5.552,5.552,0,0,1-3.363-2.138,6.389,6.389,0,0,1-.917-1.784,4.408,4.408,0,0,1-3.46,1.433c-2.242-.218-3.6-2.559-3.661-2.659a.5.5,0,0,1-.043-.1,5.554,5.554,0,0,1,.527-4.4,7.826,7.826,0,0,1,.574-.9c-3.019-.431-5.245-4.407-5.35-4.6a.5.5,0,0,1-.048-.123l-.418-1.725a.5.5,0,0,1,.972-.236l.4,1.657c.3.519,2.727,4.524,5.452,4.018a.5.5,0,0,1,.432.858c-.024.022-2.44,2.326-1.606,5.091a4.461,4.461,0,0,0,2.869,2.118c1.052.1,2.145-.495,3.247-1.769a.5.5,0,0,1,.874.266,5.4,5.4,0,0,0,.981,2.284c1.078,1.431,2.763,2.046,5.01,1.827a.5.5,0,0,1,.136.99,7.168,7.168,0,0,0-4.228,2.566,4.629,4.629,0,0,0-.5,3.729.5.5,0,0,1-.734.55c-.023-.013-2.418-1.342-4.07-.284a3.713,3.713,0,0,0-1.167,3.545.5.5,0,0,1-.618.553,7.04,7.04,0,0,0-2.5-.063,5.378,5.378,0,0,0-4.032,2.8A.5.5,0,0,1,58,42.127Z" transform="translate(-21.611 -4.192)" fill="#fcfeff"/>
      <path id="Path_174" data-name="Path 174" d="M47.016,42.127a.5.5,0,0,1-.436-.255,5.38,5.38,0,0,0-4.066-2.809,6.952,6.952,0,0,0-2.466.069.5.5,0,0,1-.618-.553,3.714,3.714,0,0,0-1.168-3.546c-1.66-1.062-4.045.271-4.069.285a.5.5,0,0,1-.734-.55,4.629,4.629,0,0,0-.5-3.729,7.168,7.168,0,0,0-4.228-2.566.5.5,0,0,1,.136-.99c2.263.22,3.957-.405,5.033-1.859a5.325,5.325,0,0,0,.958-2.253.5.5,0,0,1,.874-.266c1.1,1.274,2.195,1.869,3.247,1.769a4.46,4.46,0,0,0,2.869-2.118c.834-2.765-1.582-5.068-1.607-5.091a.5.5,0,0,1,.4-.862,4.33,4.33,0,0,0,4.183-1.817A7.224,7.224,0,0,0,45.963,12.7c0-.016.009-.033.015-.048l.568-1.569a.5.5,0,0,1,.94.34l-.56,1.547a8.176,8.176,0,0,1-1.281,2.593,5.338,5.338,0,0,1-3.953,2.262,7.821,7.821,0,0,1,.567.893,5.554,5.554,0,0,1,.527,4.4.5.5,0,0,1-.043.1c-.057.1-1.419,2.441-3.661,2.659a4.408,4.408,0,0,1-3.46-1.433,6.389,6.389,0,0,1-.917,1.784,5.553,5.553,0,0,1-3.363,2.138,6.518,6.518,0,0,1,2.451,2.127,5.287,5.287,0,0,1,.8,3.557,4.775,4.775,0,0,1,4.222.159l.018.012a4.552,4.552,0,0,1,1.642,3.832,8.245,8.245,0,0,1,2.185.028,6.416,6.416,0,0,1,4.789,3.308.5.5,0,0,1-.435.745Z" transform="translate(-10.739 -4.192)" fill="#fcfeff"/>
    </g>
  </g>
</svg>
