<svg id="icon-close" xmlns="http://www.w3.org/2000/svg" width="104" height="105" viewBox="0 0 104 105">
  <g id="Rectangle_62" data-name="Rectangle 62" fill="#fcfeff" stroke="#c8b273" stroke-width="3">
    <path d="M11,0H91a13,13,0,0,1,13,13V94a11,11,0,0,1-11,11H11A11,11,0,0,1,0,94V11A11,11,0,0,1,11,0Z" stroke="none"/>
    <path d="M11,1.5H91A11.5,11.5,0,0,1,102.5,13V94a9.5,9.5,0,0,1-9.5,9.5H11A9.5,9.5,0,0,1,1.5,94V11A9.5,9.5,0,0,1,11,1.5Z" fill="none"/>
  </g>
  <path id="Path_93" data-name="Path 93" d="M64.6,16.907a1.769,1.769,0,0,0-2.427,0L40.752,38.324,19.334,16.907a1.716,1.716,0,0,0-2.427,2.427L38.324,40.752,16.907,62.169a1.769,1.769,0,0,0,0,2.427,1.724,1.724,0,0,0,2.427,0L40.752,43.179,62.169,64.6a1.724,1.724,0,0,0,2.427,0,1.769,1.769,0,0,0,0-2.427L43.179,40.752,64.6,19.334a1.769,1.769,0,0,0,0-2.427Z" transform="translate(11.345 11.748)" fill="#c8b273"/>
</svg>
