<svg xmlns="http://www.w3.org/2000/svg" width="18.229" height="11.137" viewBox="0 0 18.229 11.137">
  <g id="Group_9849" data-name="Group 9849" transform="translate(0 0)">
    <path id="Path_51142" data-name="Path 51142" d="M463.445,684.523c.389-.559.8-1.081,1.122-1.649.093-.162-.044-.455-.076-.7-.245.039-.416.055-.582.1a.249.249,0,0,1-.345-.2,2.212,2.212,0,0,1-.054-.539c.007-.206.172-.216.334-.216q1.034,0,2.068,0c.145,0,.3-.016.309.194a.338.338,0,0,1-.252.4c-.253.062-.511.1-.764.155.011.3.137.41.439.407,1.531-.015,3.062-.007,4.592-.007h.37l-.669-1.754c-.316,0-.62,0-.923,0-.228,0-.378-.091-.393-.325a.345.345,0,0,1,.37-.391c.395-.016.791-.009,1.186,0,.26.006.349.2.428.411q.671,1.758,1.346,3.515c.035.092.075.183.12.294a3.541,3.541,0,0,1,2.977.6,3.4,3.4,0,0,1,1.345,2.1,3.5,3.5,0,0,1-6.49,2.406,3.391,3.391,0,0,1-.29-2.732,3.456,3.456,0,0,1,1.76-2.092l-.4-1.022c-.107.119-.193.209-.274.3-1.135,1.323-2.265,2.651-3.412,3.964a.777.777,0,0,1-.485.228,11.979,11.979,0,0,1-1.276.007c-.208-.006-.291.048-.334.272a3.539,3.539,0,0,1-3.136,2.865,3.48,3.48,0,0,1-3.613-2.358,3.316,3.316,0,0,1,.844-3.609,3.41,3.41,0,0,1,3.646-.83c.087.027.17.066.254.1Zm8.206.691a2.707,2.707,0,0,0-1.231,3.514,2.774,2.774,0,0,0,3.69,1.418,2.736,2.736,0,0,0,1.439-3.554,2.683,2.683,0,0,0-3.193-1.611c.039.112.077.225.119.337q.4,1.063.81,2.125c.082.217.058.418-.177.506a.363.363,0,0,1-.508-.245c-.032-.085-.064-.171-.1-.256Zm-7.14,2.772h-.356c-.76,0-1.52.009-2.279-.009a.52.52,0,0,1-.4-.192.717.717,0,0,1,.063-.469,1.725,1.725,0,0,1,.236-.351l1.243-1.785a2.665,2.665,0,0,0-3.069.343,2.752,2.752,0,0,0-.686,3.291,2.765,2.765,0,0,0,5.248-.827Zm2.571-1.08,3.162-3.708h-4.63Zm-3.024-1.954a3.669,3.669,0,0,1,1.184,2.142c.01.059.093.149.144.151.331.014.663.007,1.04.007l-1.436-3.657Zm.462,2.288a2.771,2.771,0,0,0-.893-1.681l-1.15,1.681Z" transform="translate(-458.237 -679.99)" fill="#BB855D"/>
  </g>
</svg>