<svg id="icon-print" xmlns="http://www.w3.org/2000/svg" width="104" height="105" viewBox="0 0 104 105">
  <g id="Rectangle_5693" data-name="Rectangle 5693" fill="#fcfeff" stroke="#c8b273" stroke-width="3">
    <path d="M11,0H91a13,13,0,0,1,13,13V94a11,11,0,0,1-11,11H11A11,11,0,0,1,0,94V11A11,11,0,0,1,11,0Z" stroke="none"/>
    <path d="M11,1.5H91A11.5,11.5,0,0,1,102.5,13V94a9.5,9.5,0,0,1-9.5,9.5H11A9.5,9.5,0,0,1,1.5,94V11A9.5,9.5,0,0,1,11,1.5Z" fill="none"/>
  </g>
  <path id="Path_196" data-name="Path 196" d="M59.459,21.115h-8.27v-10.4a4.7,4.7,0,0,0-4.7-4.7H45.02v-3.2A2.823,2.823,0,0,0,42.2,0H21.958a2.823,2.823,0,0,0-2.819,2.819v3.2h-1.47a4.7,4.7,0,0,0-4.7,4.7v10.4H4.7a4.7,4.7,0,0,0-4.7,4.7V47.743a4.7,4.7,0,0,0,4.7,4.7H17.089l-.941,8.59a2.819,2.819,0,0,0,2.8,3.126H45.208a2.819,2.819,0,0,0,2.8-3.126l-.94-8.59H59.459a4.7,4.7,0,0,0,4.7-4.7V25.814A4.7,4.7,0,0,0,59.459,21.115ZM45.02,7.894h1.47a2.823,2.823,0,0,1,2.819,2.819V21.052H45.02Zm-24-5.075a.941.941,0,0,1,.94-.94H42.2a.941.941,0,0,1,.94.94V21.052H21.018Zm-6.169,7.894a2.823,2.823,0,0,1,2.819-2.819h1.47V21.052H14.849ZM45.907,61.966a.929.929,0,0,1-.7.312H18.951a.94.94,0,0,1-.934-1.042L19.072,51.6v0l.5-4.606H44.582l.5,4.606v0l1.055,9.637a.929.929,0,0,1-.234.73Zm4.216-11.4h-3.26l-.505-4.613a.94.94,0,0,0-.934-.838H18.734a.94.94,0,0,0-.934.838l-.505,4.613h-3.26V43.294a2.823,2.823,0,0,1,2.819-2.819H47.3a2.823,2.823,0,0,1,2.819,2.819Zm12.155-2.819a2.823,2.823,0,0,1-2.819,2.819H52V43.294a4.7,4.7,0,0,0-4.7-4.7H16.854a4.7,4.7,0,0,0-4.7,4.7v7.268H4.7A2.823,2.823,0,0,1,1.88,47.743V36.152h60.4Zm0-13.471H1.88V25.814A2.823,2.823,0,0,1,4.7,22.994h54.76a2.823,2.823,0,0,1,2.819,2.819Zm-18.2-6.579h-24a.94.94,0,0,0,0,1.88h24a.94.94,0,1,0,0-1.88ZM56.64,25.5a3.133,3.133,0,1,0,3.133,3.133A3.133,3.133,0,0,0,56.64,25.5Zm0,4.386a1.253,1.253,0,1,1,1.253-1.253A1.253,1.253,0,0,1,56.64,29.886ZM39.786,49.936H24.373a.94.94,0,0,0,0,1.88H39.786a.94.94,0,1,0,0-1.88Zm0,7.519H24.373a.94.94,0,0,0,0,1.88H39.786a.94.94,0,1,0,0-1.88Zm0-3.759H24.373a.94.94,0,0,0,0,1.88H39.786a.94.94,0,1,0,0-1.88Z" transform="translate(19.446 21.165)" fill="#c8b273"/>
</svg>
