<svg xmlns="http://www.w3.org/2000/svg" width="104" height="105" viewBox="0 0 104 105">
  <g id="Group_10309" data-name="Group 10309" transform="translate(2000 489)">
    <g id="Rectangle_5697" data-name="Rectangle 5697" transform="translate(-2000 -489)" fill="#c8b273" stroke="#c8b273" stroke-width="3">
      <path d="M11,0H91a13,13,0,0,1,13,13V94a11,11,0,0,1-11,11H11A11,11,0,0,1,0,94V11A11,11,0,0,1,11,0Z" stroke="none"/>
      <path d="M11,1.5H91A11.5,11.5,0,0,1,102.5,13V94a9.5,9.5,0,0,1-9.5,9.5H11A9.5,9.5,0,0,1,1.5,94V11A9.5,9.5,0,0,1,11,1.5Z" fill="none"/>
    </g>
    <path id="Path_197" data-name="Path 197" d="M59.979,7.945a18.942,18.942,0,0,0-25.82,1.27l-.3.3a1.033,1.033,0,0,1-1.46,0l-.3-.3a18.944,18.944,0,0,0-25.82-1.27A18.448,18.448,0,0,0-.063,21.33,18.661,18.661,0,0,0,5.373,35.08l24.1,24.1a5.164,5.164,0,0,0,7.3,0l24.1-24.1A18.661,18.661,0,0,0,66.314,21.33,18.448,18.448,0,0,0,59.979,7.945Zm-.56,25.677-24.1,24.1a3.173,3.173,0,0,1-4.381,0l-24.1-24.1A16.525,16.525,0,0,1,7.641,9.5a16.083,16.083,0,0,1,10.675-3.97,17.444,17.444,0,0,1,12.315,5.15l.3.3a3.1,3.1,0,0,0,4.381,0l.3-.3A16.87,16.87,0,0,1,58.61,9.5a16.525,16.525,0,0,1,.806,24.124Z" transform="translate(-1981.505 -467.836)" fill="#fcfeff"/>
  </g>
</svg>
