<svg xmlns="http://www.w3.org/2000/svg" width="90" height="91" viewBox="0 0 90 91">
  <g id="Rectangle_5704" data-name="Rectangle 5704" fill="#c8b273" stroke="#c8b273" stroke-width="3">
    <path d="M11,0H77A13,13,0,0,1,90,13V80A11,11,0,0,1,79,91H11A11,11,0,0,1,0,80V11A11,11,0,0,1,11,0Z" stroke="none"/>
    <path d="M11,1.5H77A11.5,11.5,0,0,1,88.5,13V80A9.5,9.5,0,0,1,79,89.5H11A9.5,9.5,0,0,1,1.5,80V11A9.5,9.5,0,0,1,11,1.5Z" fill="none"/>
  </g>
  <g id="Group_225" data-name="Group 225" transform="translate(-4696 227.617)">
    <path id="Line_17" data-name="Line 17" d="M0,46.5a.5.5,0,0,1-.259-.073.5.5,0,0,1-.167-.687l28-46a.5.5,0,0,1,.687-.167.5.5,0,0,1,.167.687l-28,46A.5.5,0,0,1,0,46.5Z" transform="translate(4726.5 -204.5)" fill="#fcfeff"/>
    <path id="Line_18" data-name="Line 18" d="M51,.5H0A.5.5,0,0,1-.5,0,.5.5,0,0,1,0-.5H51a.5.5,0,0,1,.5.5A.5.5,0,0,1,51,.5Z" transform="translate(4715.5 -182.5)" fill="#fcfeff"/>
    <path id="Path_99" data-name="Path 99" d="M4735.031-508.038l-.45-.689-7.5-11.5a.5.5,0,0,1,.146-.692.5.5,0,0,1,.692.146l7.05,10.811,6.1-10.784a.5.5,0,0,1,.681-.189.5.5,0,0,1,.189.681Z" transform="matrix(0.848, 0.53, -0.53, 0.848, 462.64, -2270.487)" fill="#fcfeff"/>
    <path id="Path_100" data-name="Path 100" d="M0,12a.5.5,0,0,1-.273-.081.5.5,0,0,1-.146-.692L7.531-.962l6.9,12.216a.5.5,0,0,1-.871.492L7.469.962.418,11.773A.5.5,0,0,1,0,12Z" transform="matrix(-0.848, 0.53, -0.53, -0.848, 4740.483, -196.95)" fill="#fcfeff"/>
    <path id="Path_103" data-name="Path 103" d="M0,12a.5.5,0,0,1-.273-.081.5.5,0,0,1-.146-.692L7.531-.962l6.9,12.216a.5.5,0,0,1-.871.492L7.469.962.418,11.773A.5.5,0,0,1,0,12Z" transform="translate(4730.256 -190.216) rotate(89)" fill="#fcfeff"/>
    <path id="Line_19" data-name="Line 19" d="M28,46.5a.5.5,0,0,1-.428-.24l-28-46A.5.5,0,0,1-.26-.427.5.5,0,0,1,.427-.26l28,46A.5.5,0,0,1,28,46.5Z" transform="translate(4727.5 -204.5)" fill="#fcfeff"/>
    <path id="Path_101" data-name="Path 101" d="M4735.031-508.038l-.45-.689-7.5-11.5a.5.5,0,0,1,.146-.692.5.5,0,0,1,.692.146l7.05,10.811,6.1-10.784a.5.5,0,0,1,.681-.189.5.5,0,0,1,.189.681Z" transform="matrix(-0.848, -0.53, 0.53, -0.848, 9019.359, 1906.253)" fill="#fcfeff"/>
    <path id="Path_102" data-name="Path 102" d="M0,12a.5.5,0,0,1-.273-.081.5.5,0,0,1-.146-.692L7.531-.962l6.9,12.216a.5.5,0,0,1-.871.492L7.469.962.418,11.773A.5.5,0,0,1,0,12Z" transform="matrix(0.848, -0.53, 0.53, 0.848, 4741.517, -167.284)" fill="#fcfeff"/>
    <path id="Path_104" data-name="Path 104" d="M7.531,12.462-.419.273A.5.5,0,0,1-.273-.419a.5.5,0,0,1,.692.146L7.47,10.538,13.565-.246a.5.5,0,0,1,.681-.189.5.5,0,0,1,.189.681Z" transform="matrix(-0.017, 1, -1, -0.017, 4763.5, -190.016)" fill="#fcfeff"/>
  </g>
</svg>
