<svg id="icon-south" xmlns="http://www.w3.org/2000/svg" width="90" height="91" viewBox="0 0 90 91">
  <g id="Rectangle_266" data-name="Rectangle 266" fill="#fcfeff" stroke="#c8b273" stroke-width="3">
    <path d="M11,0H77A13,13,0,0,1,90,13V80A11,11,0,0,1,79,91H11A11,11,0,0,1,0,80V11A11,11,0,0,1,11,0Z" stroke="none"/>
    <path d="M11,1.5H77A11.5,11.5,0,0,1,88.5,13V80A9.5,9.5,0,0,1,79,89.5H11A9.5,9.5,0,0,1,1.5,80V11A9.5,9.5,0,0,1,11,1.5Z" fill="none"/>
  </g>
  <g id="Group_149" data-name="Group 149" transform="translate(-1783 -95)">
    <path id="Light" d="M10.12-4.026c0-2.728-1.936-3.762-3.894-4.774-2.024-1.056-3.5-1.694-3.5-3.608A2.468,2.468,0,0,1,5.412-14.85,4.2,4.2,0,0,1,8.668-13.6l.946-1.166a5.843,5.843,0,0,0-4.2-1.562,3.981,3.981,0,0,0-4.29,3.982c0,2.728,2.112,3.762,4.18,4.818,1.65.858,3.234,1.716,3.234,3.586,0,1.716-1.408,2.728-3.146,2.728A5.367,5.367,0,0,1,1.914-2.53L.99-1.386A6.678,6.678,0,0,0,5.434.264,4.4,4.4,0,0,0,10.12-4.026Z" transform="translate(1838 149)" fill="#c8b273"/>
  </g>
  <path id="Ellipse_28" data-name="Ellipse 28" d="M15,1A14,14,0,0,0,5.1,24.9,14,14,0,1,0,24.9,5.1,13.908,13.908,0,0,0,15,1m0-1A15,15,0,1,1,0,15,15,15,0,0,1,15,0Z" transform="translate(19 31)" fill="#c8b273"/>
  <path id="Path_176" data-name="Path 176" d="M1793.854,594.717l-7.711-7.866a.5.5,0,0,1,.714-.7l6.994,7.134,6.921-7.132a.5.5,0,0,1,.718.7Z" transform="translate(-1759.39 -543.251)" fill="#c8b273"/>
</svg>
