<svg xmlns="http://www.w3.org/2000/svg" width="90" height="91" viewBox="0 0 90 91">
  <g id="Rectangle_5702" data-name="Rectangle 5702" fill="#c8b273" stroke="#c8b273" stroke-width="3">
    <path d="M11,0H77A13,13,0,0,1,90,13V80A11,11,0,0,1,79,91H11A11,11,0,0,1,0,80V11A11,11,0,0,1,11,0Z" stroke="none"/>
    <path d="M11,1.5H77A11.5,11.5,0,0,1,88.5,13V80A9.5,9.5,0,0,1,79,89.5H11A9.5,9.5,0,0,1,1.5,80V11A9.5,9.5,0,0,1,11,1.5Z" fill="none"/>
  </g>
  <g id="Group_223" data-name="Group 223" transform="translate(-4511.5 227)">
    <path id="Ellipse_22" data-name="Ellipse 22" d="M15.5,1A14.5,14.5,0,0,0,5.247,25.753,14.5,14.5,0,0,0,25.753,5.247,14.405,14.405,0,0,0,15.5,1m0-1A15.5,15.5,0,1,1,0,15.5,15.5,15.5,0,0,1,15.5,0Z" transform="translate(4541 -197)" fill="#fcfeff"/>
    <path id="Line_8" data-name="Line 8" d="M0,7.5A.5.5,0,0,1-.5,7V0A.5.5,0,0,1,0-.5.5.5,0,0,1,.5,0V7A.5.5,0,0,1,0,7.5Z" transform="translate(4556.5 -208.5)" fill="#fcfeff"/>
    <path id="Line_9" data-name="Line 9" d="M0,7.5A.5.5,0,0,1-.5,7V0A.5.5,0,0,1,0-.5.5.5,0,0,1,.5,0V7A.5.5,0,0,1,0,7.5Z" transform="translate(4556.5 -161.5)" fill="#fcfeff"/>
    <path id="Line_10" data-name="Line 10" d="M0,7.5A.5.5,0,0,1-.5,7V0A.5.5,0,0,1,0-.5.5.5,0,0,1,.5,0V7A.5.5,0,0,1,0,7.5Z" transform="translate(4583.5 -181.5) rotate(90)" fill="#fcfeff"/>
    <path id="Line_11" data-name="Line 11" d="M0,7.5A.5.5,0,0,1-.5,7V0A.5.5,0,0,1,0-.5.5.5,0,0,1,.5,0V7A.5.5,0,0,1,0,7.5Z" transform="translate(4536.5 -181.5) rotate(90)" fill="#fcfeff"/>
    <path id="Line_12" data-name="Line 12" d="M0,7.5A.5.5,0,0,1-.5,7V0A.5.5,0,0,1,0-.5.5.5,0,0,1,.5,0V7A.5.5,0,0,1,0,7.5Z" transform="translate(4575.592 -162.408) rotate(135)" fill="#fcfeff"/>
    <path id="Line_13" data-name="Line 13" d="M0,7.5A.5.5,0,0,1-.5,7V0A.5.5,0,0,1,0-.5.5.5,0,0,1,.5,0V7A.5.5,0,0,1,0,7.5Z" transform="translate(4542.358 -195.642) rotate(135)" fill="#fcfeff"/>
    <path id="Line_14" data-name="Line 14" d="M0,7.5A.5.5,0,0,1-.5,7V0A.5.5,0,0,1,0-.5.5.5,0,0,1,.5,0V7A.5.5,0,0,1,0,7.5Z" transform="translate(4537.408 -162.408) rotate(-135)" fill="#fcfeff"/>
    <path id="Line_15" data-name="Line 15" d="M0,7.5A.5.5,0,0,1-.5,7V0A.5.5,0,0,1,0-.5.5.5,0,0,1,.5,0V7A.5.5,0,0,1,0,7.5Z" transform="translate(4570.642 -195.642) rotate(-135)" fill="#fcfeff"/>
  </g>
</svg>
