<svg id="icon-compare" xmlns="http://www.w3.org/2000/svg" width="104" height="105" viewBox="0 0 104 105">
  <g id="Rectangle_5694" data-name="Rectangle 5694" fill="#fcfeff" stroke="#c8b273" stroke-width="3">
    <path d="M11,0H91a13,13,0,0,1,13,13V94a11,11,0,0,1-11,11H11A11,11,0,0,1,0,94V11A11,11,0,0,1,11,0Z" stroke="none"/>
    <path d="M11,1.5H91A11.5,11.5,0,0,1,102.5,13V94a9.5,9.5,0,0,1-9.5,9.5H11A9.5,9.5,0,0,1,1.5,94V11A9.5,9.5,0,0,1,11,1.5Z" fill="none"/>
  </g>
  <g id="Group_206" data-name="Group 206" transform="translate(18.336 31.399)">
    <g id="Group_79" data-name="Group 79" transform="translate(27.254 0)">
      <path id="Path_74" data-name="Path 74" d="M28.763,35.217l-.922-.922-2.2-2.2L22.97,29.424l-2.3-2.3c-.373-.373-.739-.75-1.118-1.118l-.017-.017v1.464l.922-.922,2.2-2.2,2.672-2.672,2.3-2.3c.373-.373.75-.741,1.118-1.118l.017-.017a1.04,1.04,0,0,0,0-1.466,1.043,1.043,0,0,0-.733-.3,1.088,1.088,0,0,0-.733.3l-.922.922-2.2,2.2L21.5,22.558l-2.3,2.3c-.373.373-.75.741-1.118,1.118l-.017.017a1.052,1.052,0,0,0,0,1.464c.309.311.617.617.924.926l2.2,2.2,2.672,2.672,2.3,2.3c.373.373.741.75,1.118,1.118l.017.017a1.04,1.04,0,0,0,1.466,0,1.043,1.043,0,0,0,.3-.733,1.09,1.09,0,0,0-.3-.733Z" transform="translate(-17.764 -16.462)" fill="#c8b273"/>
      <path id="Path_75" data-name="Path 75" d="M18.3,464.028H56.41c.238,0-19.962,0-19.724,0H57.157a1.078,1.078,0,0,0,.733-.3,1.04,1.04,0,0,0,0-1.466,1.074,1.074,0,0,0-.733-.3H19.046c-.238,0-.478,0-.717,0H18.3a1.078,1.078,0,0,0-.733.3,1.04,1.04,0,0,0,0,1.466,1.092,1.092,0,0,0,.733.3Z" transform="translate(-17.262 -452.729)" fill="#c8b273"/>
    </g>
    <g id="Group_80" data-name="Group 80" transform="translate(40.932 43.69) rotate(180)">
      <path id="Path_74-2" data-name="Path 74" d="M10.988,18.755l-.922-.922-2.2-2.2L5.2,12.962l-2.3-2.3c-.373-.373-.739-.75-1.118-1.118L1.763,9.53v1.464l.922-.922,2.2-2.2L7.556,5.2l2.3-2.3c.373-.373.75-.741,1.118-1.118l.017-.017a1.065,1.065,0,0,0,.3-.733,1.056,1.056,0,0,0-.3-.733,1.043,1.043,0,0,0-.733-.3,1.088,1.088,0,0,0-.733.3L8.6,1.225l-2.2,2.2L3.729,6.1l-2.3,2.3c-.373.373-.75.741-1.118,1.118L.3,9.528a1.052,1.052,0,0,0,0,1.464c.309.311.617.617.924.926l2.2,2.2L6.092,16.79l2.3,2.3c.373.373.741.75,1.118,1.118l.017.017a1.04,1.04,0,0,0,1.466,0,1.043,1.043,0,0,0,.3-.733,1.09,1.09,0,0,0-.3-.733Z" transform="translate(0.011 0)" fill="#c8b273"/>
      <path id="Path_75-2" data-name="Path 75" d="M1.036,2.072H18.708c.238,0,.478,0,.717,0H39.9a1.078,1.078,0,0,0,.733-.3,1.04,1.04,0,0,0,0-1.466A1.074,1.074,0,0,0,39.9,0H1.784c-.238,0-.478,0-.717,0H1.036A1.078,1.078,0,0,0,.3.3,1.04,1.04,0,0,0,.3,1.77a1.092,1.092,0,0,0,.733.3Z" transform="translate(0 9.227)" fill="#c8b273"/>
    </g>
  </g>
</svg>
