<svg xmlns="http://www.w3.org/2000/svg" width="33.097" height="51.113" viewBox="0 0 33.097 51.113">
  <g id="icon-walk" transform="translate(1.236 1)">
    <path id="icon-walk-2" data-name="icon-walk" d="M20.672,13.187a4.8,4.8,0,0,0,4.6-4.98,4.8,4.8,0,0,0-4.6-4.98,4.8,4.8,0,0,0-4.6,4.98A4.8,4.8,0,0,0,20.672,13.187Zm8.363,11.457L26.8,23.42l-.93-3.05c-1.41-4.627-5.342-7.864-9.8-7.874-3.453-.01-5.361,1.048-8.948,2.614A9.477,9.477,0,0,0,2.353,19.9l-.643,1.411a3.463,3.463,0,0,0,1.362,4.451,2.927,2.927,0,0,0,4.076-1.484l.643-1.411a3.159,3.159,0,0,1,1.583-1.6l2.57-1.12-1.458,6.3a7.057,7.057,0,0,0,1.429,6.1l5.745,6.785a6.881,6.881,0,0,1,1.429,2.874l1.755,7.6a3.067,3.067,0,0,0,3.721,2.417A3.353,3.353,0,0,0,26.8,48.2l-2.129-9.233A6.821,6.821,0,0,0,23.243,36.1l-4.364-5.156,1.65-7.127.528,1.712a6.5,6.5,0,0,0,3.04,3.838l2.235,1.224a2.927,2.927,0,0,0,4.076-1.484,3.493,3.493,0,0,0-1.372-4.461ZM7.082,39.241a6.5,6.5,0,0,1-1.362,2.23l-4.8,5.2a3.52,3.52,0,0,0,0,4.7,2.9,2.9,0,0,0,4.335,0l5.7-6.162a6.811,6.811,0,0,0,1.362-2.23l3.75-5.393c-5.3-6.256-4.578-5.759-5.412-6.993L7.082,39.241Z" transform="translate(-0.026 -3.228)" fill="none" stroke="#c8b273" stroke-width="2"/>
  </g>
</svg>
