<svg id="logo-choo-communities" xmlns="http://www.w3.org/2000/svg" xmlns:xlink="http://www.w3.org/1999/xlink" width="290.636" height="115.042" viewBox="0 0 290.636 115.042">
  <defs>
    <clipPath id="clip-path">
      <rect id="Rectangle_19" data-name="Rectangle 19" width="290.636" height="115.042" fill="none"/>
    </clipPath>
  </defs>
  <g id="Group_34" data-name="Group 34">
    <g id="Group_33" data-name="Group 33" clip-path="url(#clip-path)">
      <path id="Path_43" data-name="Path 43" d="M57.818,7.548c4.877.568-7.128,23.368-7.128,23.368S53.207,6.981,57.818,7.548m67.374,38.882c-2.508-1.061-4.359-2.483-5.025-4-.795-1.515-.543-3.663,1.693-3.766,3.164-.193,3.45,4.546,3.332,7.77m-8.12,9.073c-4.349-.158-4.5-3.643-4.373-5.612.123-1.792,1.831-6.022,3.278-6.743,1.461,2.675,4.749,5.183,8.446,6.595-1.175,2.779-4.058,5.923-7.35,5.76m-22.958-8.92c-2.508-1.061-4.359-2.483-5.025-4-.8-1.515-.543-3.663,1.693-3.766,3.159-.193,3.445,4.546,3.332,7.77m-8.12,9.073c-4.349-.158-4.5-3.643-4.373-5.612.123-1.792,2.063-6.22,3.5-6.945a16.2,16.2,0,0,0,8.214,6.8c-1.17,2.779-4.053,5.923-7.345,5.761M65.622,58.371c7.059.291,8.387-3.327,11.57-6.471.454,2.937,2.577,6.165,7.626,6.358a12.413,12.413,0,0,0,12.345-7.488,21.342,21.342,0,0,0,11.042-.918c-.286,3.223,1.5,8.021,7.691,8.253a12.4,12.4,0,0,0,12.345-7.488c9.882,1.476,15.268-2.577,16.7-5.538.908-2.241-.676-3.4-1.589-2.226l-1.313,1.525c-3.006,4.043-8.406,4.428-12.755,3.283a6.7,6.7,0,0,0,.252-1.609c.884-7.789-4.655-10.415-8.085-10.425C114.514,35.6,110.116,43.187,109,46.46c-3.07,2.2-7.276,2.276-10.8,1.353a6.75,6.75,0,0,0,.257-1.609c.884-7.789-4.655-10.465-8.085-10.425-6.7.074-11.264,7.449-12.4,10.687-3.431,4.033-5.859,8.925-11.6,9.018m2.621-.336c-5.923,1.278-5.7-6.669-5.445-9.231.38-3.544,4.176-7.7-3.065-7.661-5.4.025-11.654,13.446-11.654,13.446l1.17-13.491S61.767,18.418,63.312,11.127c1.16-5.321-4.324-7.231-5.775-7.222-5.005-.074-8.92,7.231-10.44,19.054-1.525,11.723-1.6,14.182-1.6,14.182,0,.039-13.036,18.219-21.808,18.427-7.636.178-9.892-2.71-9.655-8.619.227-5.864,5.109-10.874,10-10.948,2.547.346,4.29,2.409,5.741,3.307,0,0,5.573.671.8-4.043-1.1-1.4-3.164-2.3-6.081-2.35C14.755,32.668,9,41.559,8.772,47.961c-.365,6.5,5.978,10.8,14.275,10.563,8.49-.267,12.36-4.926,21.941-14.384-.163,1.97-1.585,10.721-1.155,12.02a3.061,3.061,0,0,0,5.667.563c.385-.686,7.7-14.216,9.675-14.034,1.451.193-3.584,17.839,9.453,15.559" transform="translate(34.469 15.37)" fill="#fff"/>
      <path id="Path_44" data-name="Path 44" d="M25.078,27.749a8.368,8.368,0,0,1-16.329-2.8,8.383,8.383,0,0,1,8.342-8.54,8.2,8.2,0,0,1,7.987,5.869H21.721c-1.239-2.216-2.513-3.1-4.6-3.1-3.065,0-5.346,2.478-5.346,5.77a5.585,5.585,0,0,0,5.282,5.835,5.305,5.305,0,0,0,4.66-3.031Z" transform="translate(34.437 64.577)" fill="#fff"/>
      <path id="Path_45" data-name="Path 45" d="M15.821,24.911a5.756,5.756,0,1,0,5.741-5.736,5.807,5.807,0,0,0-5.741,5.736m14.542.035a8.787,8.787,0,1,1-8.8-8.54,8.63,8.63,0,0,1,8.8,8.54" transform="translate(50.363 64.577)" fill="#fff"/>
      <path id="Path_46" data-name="Path 46" d="M38.819,33.126V24.063c0-3.223-1.338-4.887-3.88-4.887a3.9,3.9,0,0,0-3.06,1.3c-.652.849-.849,1.693-.849,3.584v9.063H28V24.063c0-2.053-.1-2.508-.652-3.357a3.5,3.5,0,0,0-3.065-1.53,4.087,4.087,0,0,0-3.031,1.239c-.75.814-.977,1.693-.977,3.648v9.063H17.243V16.832h2.833v1.757a5.408,5.408,0,0,1,4.758-2.182,5.594,5.594,0,0,1,5.02,2.705,5.631,5.631,0,0,1,5.282-2.705c4.206,0,6.713,2.508,6.713,6.777v9.941Z" transform="translate(67.871 64.581)" fill="#fff"/>
      <path id="Path_47" data-name="Path 47" d="M44.922,33.126V24.063c0-3.223-1.338-4.887-3.88-4.887a3.9,3.9,0,0,0-3.06,1.3c-.657.849-.849,1.693-.849,3.584v9.063H34.1V24.063c0-2.053-.1-2.508-.652-3.357a3.5,3.5,0,0,0-3.065-1.53,4.087,4.087,0,0,0-3.031,1.239c-.75.814-.977,1.693-.977,3.648v9.063H23.346V16.832h2.833v1.757a5.413,5.413,0,0,1,4.758-2.182,5.594,5.594,0,0,1,5.02,2.705,5.631,5.631,0,0,1,5.282-2.705c4.206,0,6.713,2.508,6.713,6.777v9.941Z" transform="translate(91.894 64.581)" fill="#fff"/>
      <path id="Path_48" data-name="Path 48" d="M32.5,16.492v8.865c0,3.421,1.338,5.084,4.072,5.084,2.675,0,4.27-1.891,4.27-5.084V16.492h3.036V32.786H41.035V31.059a5.649,5.649,0,0,1-4.793,2.152A6.38,6.38,0,0,1,29.465,26.5V16.492Z" transform="translate(115.979 64.915)" fill="#fff"/>
      <path id="Path_49" data-name="Path 49" d="M44.975,33.126V24.26c0-3.455-1.308-5.084-4.043-5.084-2.675,0-4.275,1.891-4.275,5.084v8.865H33.563V16.832H36.4v1.728a5.8,5.8,0,0,1,4.823-2.152A6.382,6.382,0,0,1,48,23.12V33.126Z" transform="translate(132.109 64.581)" fill="#fff"/>
      <rect id="Rectangle_17" data-name="Rectangle 17" width="3.031" height="16.299" transform="translate(185.279 81.407)" fill="#fff"/>
      <path id="Path_50" data-name="Path 50" d="M45.022,37.967H41.991V24.442H39.163V21.673h2.828v-6.5h3.031v6.5H47.7v2.769H45.022Z" transform="translate(154.151 59.738)" fill="#fff"/>
      <rect id="Rectangle_18" data-name="Rectangle 18" width="3.031" height="16.299" transform="translate(207.847 81.407)" fill="#fff"/>
      <path id="Path_51" data-name="Path 51" d="M57.276,24.071a5.3,5.3,0,0,0-5.346-4.921,5.447,5.447,0,0,0-3.914,1.792,5.133,5.133,0,0,0-1.269,3.13Zm2.508,4.043a8.235,8.235,0,0,1-7.824,5.543,8.513,8.513,0,0,1-8.278-8.609,8.317,8.317,0,1,1,16.625-.193c0,.326-.035.977-.1,1.565H46.747a5.508,5.508,0,0,0,5.375,4.462,5.191,5.191,0,0,0,4.6-2.769Z" transform="translate(171.939 64.474)" fill="#fff"/>
      <path id="Path_52" data-name="Path 52" d="M55.753,21.164c-.2-1.338-.879-1.989-2.019-1.989A1.828,1.828,0,0,0,51.745,21c0,1.012.523,1.431,2.508,2.053,3.327,1.012,4.892,2.705,4.892,5.311a5.458,5.458,0,0,1-5.573,5.183c-3.391,0-5.578-2.216-5.642-5.736h3.065c.163,1.925,1.076,2.967,2.705,2.967a2.183,2.183,0,0,0,2.414-2.152c0-1.239-.652-1.792-2.868-2.542-3.327-1.111-4.566-2.379-4.566-4.63a4.947,4.947,0,0,1,5.183-5.05,4.741,4.741,0,0,1,4.921,4.758Z" transform="translate(188.656 64.577)" fill="#fff"/>
      <path id="Path_53" data-name="Path 53" d="M41.191,16.965a1.752,1.752,0,1,1-1.752-1.752,1.753,1.753,0,0,1,1.752,1.752" transform="translate(148.338 59.881)" fill="#fff"/>
      <path id="Path_54" data-name="Path 54" d="M45.756,16.965A1.752,1.752,0,1,1,44,15.213a1.753,1.753,0,0,1,1.752,1.752" transform="translate(166.307 59.881)" fill="#fff"/>
    </g>
  </g>
</svg>
