<svg id="logo-astoria" xmlns="http://www.w3.org/2000/svg" xmlns:xlink="http://www.w3.org/1999/xlink" width="459.5" height="80.341" viewBox="0 0 459.5 80.341">
  <defs>
    <clipPath id="clip-path">
      <rect id="Rectangle_5633" data-name="Rectangle 5633" width="459.5" height="80.341" fill="#fff"/>
    </clipPath>
  </defs>
  <g id="Group_157" data-name="Group 157" clip-path="url(#clip-path)">
    <path id="Path_192" data-name="Path 192" d="M440.018,44.441H418.459L429.24,12.4ZM400.357,72h8.95l6.306-19.016h27.253L449.173,72h8.947L433.511.813h-8.542Zm-31.119,0h8.95V.813h-8.95ZM320.63,9.355c7.628,0,11.491,3.458,11.491,10.272S328.259,29.9,320.63,29.9H305.682V9.355ZM347.783,72,326.528,37.83c9.355-1.931,14.848-8.442,14.848-18.2,0-11.8-8.237-18.814-20.95-18.814H296.732V72h8.95V38.439h10.678L337.206,72ZM255.648,15.762c4.271,4.78,6.407,11.7,6.407,20.642s-2.135,15.866-6.407,20.645a20.712,20.712,0,0,1-16.271,7.22,21.065,21.065,0,0,1-16.371-7.22c-4.17-4.78-6.306-11.7-6.306-20.645s2.136-15.863,6.306-20.642a21.065,21.065,0,0,1,16.371-7.22,20.712,20.712,0,0,1,16.271,7.22m-38.948-6c-6.2,6.407-9.255,15.354-9.255,26.641S210.5,56.641,216.7,63.152a31.448,31.448,0,0,0,45.355,0c6.2-6.51,9.255-15.457,9.255-26.747s-3.052-20.234-9.255-26.641a31.217,31.217,0,0,0-45.355,0m-56.642-.408V72h8.947V9.355h20.542V.813H139.517V9.355ZM117.65,11.39C113.887,4.067,108.6,0,99.143,0a16.756,16.756,0,0,0-12.3,5.185A17.478,17.478,0,0,0,81.651,18.1c0,5.289,1.627,9.255,5.289,12.508,3.662,3.153,6.407,4.78,12,7.321,8.542,4.067,13.425,7.628,13.425,13.831a12.958,12.958,0,0,1-2.748,8.442c-2.34,2.745-5.49,4.067-9.66,4.067-8.442,0-12.508-5.694-15.253-15.357l-7.729,4.679a24.531,24.531,0,0,0,8.033,13.831,22.313,22.313,0,0,0,14.949,5.389q9.761,0,15.863-6.711a20.708,20.708,0,0,0,5.493-14.543c-.3-7.116-2.848-11.287-7.628-14.845a49.228,49.228,0,0,0-9.355-5.593l-5.49-2.848c-1.118-.609-2.44-1.526-4.067-2.644-3.153-2.44-4.17-4.88-4.17-8.237a8.66,8.66,0,0,1,8.542-8.847c4.78,0,8.033,1.727,11.287,7.525ZM40.366,44.441H18.807L29.585,12.4ZM.7,72h8.95l6.3-19.016H43.211L49.517,72h8.95L33.856.813H25.314Z" transform="translate(1.38 4.293)" fill="#fff"/>
  </g>
</svg>
