<svg xmlns="http://www.w3.org/2000/svg" xmlns:xlink="http://www.w3.org/1999/xlink" width="672.339" height="322.372" viewBox="0 0 672.339 322.372">
  <defs>
    <filter id="Combined_Shape" x="0" y="0" width="672.339" height="322.372" filterUnits="userSpaceOnUse">
      <feOffset dy="2" input="SourceAlpha"/>
      <feGaussianBlur stdDeviation="5" result="blur"/>
      <feFlood flood-opacity="0.2"/>
      <feComposite operator="in" in2="blur"/>
      <feComposite in="SourceGraphic"/>
    </filter>
    <clipPath id="clip-path">
      <rect id="Rectangle_2" data-name="Rectangle 2" width="521.645" height="164.334" fill="#58585b"/>
    </clipPath>
  </defs>
  <g id="marker-astoria-white" transform="translate(-17 13)">
    <g id="Detail_Property" data-name="Detail Property" transform="translate(32 0)">
      <g transform="matrix(1, 0, 0, 1, -15, -13)" filter="url(#Combined_Shape)">
        <path id="Combined_Shape-2" data-name="Combined Shape" d="M319.314,291.312l-19.638-27.053H0V0H642.339V264.259H342.663l-19.638,27.053a2.153,2.153,0,0,1-3.711,0Z" transform="translate(15 13)" fill="#fcfeff"/>
      </g>
    </g>
    <g id="Group_30" data-name="Group 30" transform="translate(92.347 49.963)">
      <g id="Group_1" data-name="Group 1" transform="translate(0 0)" clip-path="url(#clip-path)">
        <path id="Path_1" data-name="Path 1" d="M251.089,59.607H239.2l5.947-17.669Zm-21.879,15.2h4.939l3.479-10.49h15.033l3.479,10.49h4.936L247.5,35.542h-4.711ZM201.219,40.253c7.236,0,13.633,3.929,13.633,14.922S208.455,70.1,201.219,70.1h-4.993V40.253ZM191.29,74.812h10.768a17.426,17.426,0,0,0,12.847-5.218c3.479-3.532,5.218-8.3,5.218-14.418s-1.739-10.883-5.218-14.361a17.268,17.268,0,0,0-12.847-5.272H191.29Zm-20.983,0h4.936V35.542h-4.936ZM142.649,67.8,131.88,35.542h-5.218l13.519,39.27h4.936l13.522-39.27h-5.218ZM112.3,59.607H100.408l5.947-17.669Zm-21.879,15.2h4.936l3.479-10.49h15.036l3.475,10.49h4.939l-13.576-39.27H104Zm-33.491,0H79.707V70.1H61.867V35.542H56.931Zm-22.215-15.2H22.822l5.947-17.669Zm-21.879,15.2h4.936l3.479-10.49H36.287l3.475,10.49H44.7L31.126,35.542H26.412Z" transform="translate(30.265 83.8)" fill="#58585b"/>
        <path id="Path_2" data-name="Path 2" d="M234.062,46.82a3.858,3.858,0,0,0-4.154,3.9c0,2.693,2.357,3.589,4.207,4.291,1.263.45,2.3,1.122,2.3,2.048a1.979,1.979,0,0,1-2.27,2.216q-2.146,0-3.284-2.777l-1.991,1.095a5.51,5.51,0,0,0,5.275,3.814c2.888,0,4.684-1.682,4.684-4.489.027-4.15-6.591-3.647-6.564-6.172a1.656,1.656,0,0,1,1.713-1.793,3.647,3.647,0,0,1,2.579,1.4l1.6-1.377a4.785,4.785,0,0,0-4.093-2.159m-17.618,2.132c2.162,0,3.479,1.4,3.929,3.532H212.6c.45-2.159,1.739-3.532,3.841-3.532m6.4,4.57a6.844,6.844,0,0,0-1.709-4.738,5.826,5.826,0,0,0-4.688-1.964,5.654,5.654,0,0,0-4.738,2.132,8.123,8.123,0,0,0-1.655,5.161,8.253,8.253,0,0,0,1.655,5.188,5.709,5.709,0,0,0,4.738,2.105c2.918,0,4.688-1.152,6-3.929l-2.075-.9a3.889,3.889,0,0,1-3.929,2.693c-2.438,0-3.841-1.88-3.982-4.657H222.84Zm-22.131,7.659h2.357V41.323h-2.357Zm-12.172-3.929-3.593-10.208h-2.579l4.963,13.549L185.085,66.9H187.5l7.011-19.858h-2.468Zm-17.87-8.076v7.572c0,3.059,1.6,4.657,4.1,4.657a4.419,4.419,0,0,0,2.3-.534l-.561-2.048a2.742,2.742,0,0,1-1.6.45c-1.205,0-1.88-.843-1.88-2.327v-7.77h3.7V47.045h-3.7V41.323l-2.357,1.484v4.238h-2.438v2.132Zm-8.834-4.714a5.18,5.18,0,0,0-5.1-3.14,4.622,4.622,0,0,0-3.395,1.43,4.821,4.821,0,0,0-1.43,3.563,4.289,4.289,0,0,0,1.457,3.448,11.969,11.969,0,0,0,3.311,2.021c2.357,1.121,3.7,2.1,3.7,3.814a3.565,3.565,0,0,1-.759,2.327,3.272,3.272,0,0,1-2.663,1.122c-2.33,0-3.452-1.571-4.207-4.234L150.614,56.1a6.755,6.755,0,0,0,2.216,3.814,6.152,6.152,0,0,0,4.123,1.488,5.637,5.637,0,0,0,4.375-1.854,5.713,5.713,0,0,0,1.514-4.009,4.851,4.851,0,0,0-2.105-4.1,13.543,13.543,0,0,0-2.579-1.541l-1.514-.786c-.309-.168-.675-.42-1.122-.729a2.6,2.6,0,0,1-1.152-2.273,2.39,2.39,0,0,1,2.357-2.441c1.316,0,2.216.477,3.113,2.078Zm-23.5,4.489c2.159,0,3.479,1.4,3.925,3.532h-7.77c.45-2.159,1.739-3.532,3.845-3.532m6.393,4.57a6.845,6.845,0,0,0-1.709-4.738,5.819,5.819,0,0,0-4.684-1.964,5.657,5.657,0,0,0-4.741,2.132,8.123,8.123,0,0,0-1.655,5.161,8.253,8.253,0,0,0,1.655,5.188,5.711,5.711,0,0,0,4.741,2.105c2.918,0,4.684-1.152,6-3.929l-2.078-.9a3.887,3.887,0,0,1-3.925,2.693c-2.441,0-3.845-1.88-3.982-4.657h10.376Zm-23.981-4.345v12H123.1v-12h3.254V47.045H123.1v-.927c0-1.823.645-2.663,2.186-2.663a3.618,3.618,0,0,1,1.571.39l.477-2.075a3.982,3.982,0,0,0-2.018-.447c-2.918,0-4.573,1.625-4.573,4.795v.927h-2.018v2.132ZM109.1,43.116a1.768,1.768,0,0,0,3.536,0,1.768,1.768,0,1,0-3.536,0m.591,18.065h2.357V47.045h-2.357Zm-18.233,0h11.39V58.824H93.924V41.545H91.456Z" transform="translate(215.636 97.43)" fill="#58585b"/>
        <path id="Path_3" data-name="Path 3" d="M499.434,50.451H474.958L487.2,14.083ZM454.409,81.736h10.161l7.159-21.587h30.939l7.159,21.587h10.157L492.046.923h-9.7Zm-35.328,0h10.161V.923H419.081ZM363.9,10.621c8.66,0,13.045,3.925,13.045,11.662S372.559,33.941,363.9,33.941h-16.97V10.621Zm30.825,71.115L370.594,42.946c10.621-2.193,16.856-9.583,16.856-20.664C387.451,8.888,378.1.923,363.667.923h-26.9V81.736h10.161v-38.1H359.05l23.666,38.1Zm-104.6-63.842c4.849,5.426,7.273,13.277,7.273,23.434s-2.424,18.011-7.273,23.437a23.514,23.514,0,0,1-18.471,8.2,23.913,23.913,0,0,1-18.585-8.2c-4.734-5.426-7.159-13.277-7.159-23.437s2.424-18.008,7.159-23.434a23.913,23.913,0,0,1,18.585-8.2,23.514,23.514,0,0,1,18.471,8.2m-44.216-6.81c-7.041,7.273-10.507,17.43-10.507,30.244s3.465,22.974,10.507,30.365a35.7,35.7,0,0,0,51.489,0c7.041-7.391,10.507-17.548,10.507-30.365S304.442,18.357,297.4,11.084a35.439,35.439,0,0,0-51.489,0m-64.3-.463V81.736h10.157V10.621h23.32V.923h-56.8v9.7Zm-48.144,2.31C129.195,4.617,123.191,0,112.456,0A19.022,19.022,0,0,0,98.488,5.886,19.842,19.842,0,0,0,92.6,20.55c0,6,1.847,10.507,6,14.2,4.157,3.579,7.273,5.426,13.623,8.311,9.7,4.617,15.241,8.66,15.241,15.7a14.71,14.71,0,0,1-3.119,9.583c-2.656,3.116-6.232,4.617-10.967,4.617-9.583,0-14.2-6.464-17.316-17.434L87.289,60.84a27.849,27.849,0,0,0,9.12,15.7,25.331,25.331,0,0,0,16.97,6.118q11.081,0,18.008-7.619a23.509,23.509,0,0,0,6.235-16.51c-.346-8.079-3.234-12.813-8.66-16.853a55.885,55.885,0,0,0-10.621-6.35l-6.232-3.234c-1.269-.692-2.77-1.733-4.617-3-3.579-2.77-4.735-5.54-4.735-9.351a9.832,9.832,0,0,1,9.7-10.043c5.426,0,9.12,1.961,12.813,8.542ZM45.73,50.451H21.255L33.491,14.083ZM.705,81.736H10.866l7.155-21.587H48.96l7.159,21.587H66.28L38.339.923h-9.7Z" transform="translate(1.662 -0.001)" fill="#58585b"/>
        <path id="Path_4" data-name="Path 4" d="M19.734,61.152h2.451V52.734L27.9,41.643H25.2l-4.238,8.64-4.238-8.64h-2.7l5.715,11.091ZM6.437,43.983c1.9,0,3.1,1,3.1,2.814s-1.2,2.787-3.1,2.787H2.451v-5.6Zm.141,7.945c2.592,0,3.9,1.142,3.9,3.425,0,2.314-1.31,3.459-3.9,3.459H2.451V51.928ZM0,61.152H6.941c3.791,0,6.074-2.2,6.074-5.8a5.016,5.016,0,0,0-3.15-4.876,4.289,4.289,0,0,0,2.2-3.818c0-3.15-2.062-5.017-5.49-5.017H0Z" transform="translate(0 98.185)" fill="#58585b"/>
      </g>
    </g>
  </g>
</svg>
