<svg xmlns="http://www.w3.org/2000/svg" width="51.697" height="51.716" viewBox="0 0 51.697 51.716">
  <path id="Path_61" data-name="Path 61" d="M67.61,16.937a1.88,1.88,0,0,0-2.579,0L42.273,39.694,19.516,16.937a1.824,1.824,0,1,0-2.579,2.579L39.694,42.273,16.937,65.031a1.88,1.88,0,0,0,0,2.579,1.831,1.831,0,0,0,2.579,0L42.273,44.853,65.031,67.61a1.831,1.831,0,0,0,2.579,0,1.88,1.88,0,0,0,0-2.579L44.853,42.273,67.61,19.516A1.879,1.879,0,0,0,67.61,16.937Z" transform="translate(-16.425 -16.425)" fill="#58585b"/>
</svg>
